<svg width="322" height="226" viewBox="0 0 322 226" fill="none" xmlns="http://www.w3.org/2000/svg">
<g filter="url(#filter0_bd_5723_98530)">
<rect x="7" y="7" width="42" height="33" rx="8" fill="#CCF3F5"/>
<path d="M18.952 15.864H16.624L16.224 17H15.272L17.264 11.432H18.32L20.312 17H19.352L18.952 15.864ZM18.696 15.12L17.792 12.536L16.88 15.12H18.696ZM20.8741 14.792C20.8741 14.3387 20.9648 13.9413 21.1461 13.6C21.3328 13.2533 21.5888 12.9867 21.9141 12.8C22.2395 12.6133 22.6128 12.52 23.0341 12.52C23.5675 12.52 24.0075 12.648 24.3541 12.904C24.7061 13.1547 24.9435 13.5147 25.0661 13.984H24.0821C24.0021 13.7653 23.8741 13.5947 23.6981 13.472C23.5221 13.3493 23.3008 13.288 23.0341 13.288C22.6608 13.288 22.3621 13.4213 22.1381 13.688C21.9195 13.9493 21.8101 14.3173 21.8101 14.792C21.8101 15.2667 21.9195 15.6373 22.1381 15.904C22.3621 16.1707 22.6608 16.304 23.0341 16.304C23.5621 16.304 23.9115 16.072 24.0821 15.608H25.0661C24.9381 16.056 24.6981 16.4133 24.3461 16.68C23.9941 16.9413 23.5568 17.072 23.0341 17.072C22.6128 17.072 22.2395 16.9787 21.9141 16.792C21.5888 16.6 21.3328 16.3333 21.1461 15.992C20.9648 15.6453 20.8741 15.2453 20.8741 14.792ZM27.039 13.336V15.776C27.039 15.9413 27.0763 16.0613 27.151 16.136C27.231 16.2053 27.3643 16.24 27.551 16.24H28.111V17H27.391C26.9803 17 26.6657 16.904 26.447 16.712C26.2283 16.52 26.119 16.208 26.119 15.776V13.336H25.599V12.592H26.119V11.496H27.039V12.592H28.111V13.336H27.039ZM29.4156 12.008C29.2502 12.008 29.1116 11.952 28.9996 11.84C28.8876 11.728 28.8316 11.5893 28.8316 11.424C28.8316 11.2587 28.8876 11.12 28.9996 11.008C29.1116 10.896 29.2502 10.84 29.4156 10.84C29.5756 10.84 29.7116 10.896 29.8236 11.008C29.9356 11.12 29.9916 11.2587 29.9916 11.424C29.9916 11.5893 29.9356 11.728 29.8236 11.84C29.7116 11.952 29.5756 12.008 29.4156 12.008ZM29.8636 12.592V17H28.9516V12.592H29.8636ZM32.7649 16.184L34.0129 12.592H34.9809L33.3009 17H32.2129L30.5409 12.592H31.5169L32.7649 16.184ZM39.7103 14.688C39.7103 14.8533 39.6996 15.0027 39.6783 15.136H36.3103C36.337 15.488 36.4676 15.7707 36.7023 15.984C36.937 16.1973 37.225 16.304 37.5663 16.304C38.057 16.304 38.4036 16.0987 38.6063 15.688H39.5903C39.457 16.0933 39.2143 16.4267 38.8623 16.688C38.5156 16.944 38.0836 17.072 37.5663 17.072C37.145 17.072 36.7663 16.9787 36.4303 16.792C36.0996 16.6 35.8383 16.3333 35.6463 15.992C35.4596 15.6453 35.3663 15.2453 35.3663 14.792C35.3663 14.3387 35.457 13.9413 35.6383 13.6C35.825 13.2533 36.0836 12.9867 36.4143 12.8C36.7503 12.6133 37.1343 12.52 37.5663 12.52C37.9823 12.52 38.353 12.6107 38.6783 12.792C39.0036 12.9733 39.257 13.2293 39.4383 13.56C39.6196 13.8853 39.7103 14.2613 39.7103 14.688ZM38.7583 14.4C38.753 14.064 38.633 13.7947 38.3983 13.592C38.1636 13.3893 37.873 13.288 37.5263 13.288C37.2116 13.288 36.9423 13.3893 36.7183 13.592C36.4943 13.7893 36.361 14.0587 36.3183 14.4H38.7583Z" fill="#00C2CB"/>
<rect x="7.13526" y="7.13526" width="41.7295" height="32.7295" rx="7.86474" stroke="url(#paint0_radial_5723_98530)" stroke-width="0.270522"/>
<rect x="7.13526" y="7.13526" width="41.7295" height="32.7295" rx="7.86474" stroke="url(#paint1_radial_5723_98530)" stroke-width="0.270522"/>
</g>
<g filter="url(#filter1_bd_5723_98530)">
<rect x="7" y="21" width="290" height="179.893" rx="8" fill="#101827"/>
<rect x="7.13526" y="21.1353" width="289.729" height="179.623" rx="7.86474" stroke="url(#paint2_radial_5723_98530)" stroke-width="0.270522"/>
<rect x="7.13526" y="21.1353" width="289.729" height="179.623" rx="7.86474" stroke="url(#paint3_radial_5723_98530)" stroke-width="0.270522"/>
</g>
<path d="M7 193C7 197.418 10.5817 201 15 201H289C293.418 201 297 197.418 297 193V29C297 24.5817 293.418 21 289 21H15C10.5817 21 7 24.5817 7 29V193Z" fill="black"/>
<path d="M164.664 115.821C191.977 119.53 204.768 151.89 209.58 165.317C214.39 178.746 211.664 188.001 204.197 184.753C196.731 181.505 175.468 157.888 160.32 157.825C145.173 157.762 125.376 170.11 116.531 175.277C107.686 180.444 98.0311 176.689 103.198 163.687C108.365 150.684 134.29 111.697 164.664 115.821Z" fill="#282828"/>
<path d="M237.03 51.0786C266.193 75.3462 257.494 122.443 253.304 141.623C249.115 160.804 239.177 169.614 232.835 160.373C226.494 151.132 218.926 108.051 201.298 96.9186C183.669 85.7871 151.554 85.743 137.462 85.3147C123.369 84.8852 114.845 73.4565 130.366 62.0569C145.888 50.6561 204.602 24.0925 237.03 51.0786Z" fill="#282828"/>
<path d="M59.5942 52.6084H54.17L60.3974 44.5505C60.5878 44.3091 60.7038 44.1025 60.7468 43.9295C60.7897 43.7566 60.8199 43.5836 60.8373 43.4107C60.8721 42.9626 60.7514 42.5912 60.4752 42.2975C60.1989 42.0038 59.8623 41.8564 59.4653 41.8564H51.4852C51.0708 41.8564 50.7249 41.9911 50.4487 42.258C50.1724 42.5262 50.0343 42.8581 50.0343 43.2563C50.0343 43.6707 50.1724 44.0154 50.4487 44.2917C50.7249 44.5691 51.0708 44.706 51.4852 44.706H56.5159L50.3454 52.6862C50.1376 52.945 50.0087 53.1748 49.9565 53.3722C49.9043 53.5718 49.8695 53.8005 49.8532 54.0593C49.8358 54.3704 49.9565 54.6815 50.2154 54.9914C50.4742 55.3025 50.8201 55.458 51.2519 55.458H59.5942C60.0085 55.458 60.3544 55.3199 60.6307 55.0436C60.907 54.7674 61.0451 54.4308 61.0451 54.0338C61.0451 53.6194 60.907 53.2781 60.6307 53.01C60.3544 52.7419 60.0085 52.6084 59.5942 52.6084Z" fill="#FF914D"/>
<path d="M73.5861 41.5967C73.1369 41.5967 72.7655 41.7476 72.4718 42.0505C72.1781 42.3523 72.0319 42.7284 72.0319 43.1776V49.8089C72.0319 50.4659 71.9193 51.0231 71.6953 51.4804C71.4701 51.9377 71.1509 52.2836 70.7365 52.517C70.3221 52.7503 69.8125 52.8663 69.2078 52.8663C68.3268 52.8663 67.6408 52.6377 67.1486 52.1803C66.6553 51.723 66.4093 50.9325 66.4093 49.8089V43.1776C66.4093 42.7284 66.263 42.3523 65.9693 42.0505C65.6757 41.7476 65.3042 41.5967 64.855 41.5967C64.4058 41.5967 64.0344 41.7476 63.7419 42.0505C63.447 42.3523 63.3008 42.7284 63.3008 43.1776V50.7422C63.3008 51.7091 63.4911 52.5692 63.8707 53.3202C64.2503 54.0712 64.7819 54.6585 65.4644 55.081C66.1458 55.5047 66.9444 55.716 67.8602 55.716C68.6379 55.716 69.3285 55.6208 69.9333 55.4316C70.538 55.2412 71.0603 54.9615 71.5003 54.5889C71.7022 54.4194 71.8868 54.2256 72.0574 54.0143V54.2917C72.0574 55.1727 71.9239 55.8669 71.6558 56.3776C71.3877 56.886 70.9907 57.2493 70.4649 57.4652C69.9379 57.6811 69.2763 57.789 68.4823 57.789C67.895 57.789 67.3773 57.6985 66.9281 57.5174C66.4789 57.3352 66.1156 57.2017 65.8393 57.1158C65.4598 56.9765 65.0965 56.9986 64.7517 57.1797C64.4058 57.3619 64.1562 57.702 64.0007 58.2034C63.8788 58.583 63.9183 58.9417 64.1168 59.2783C64.3153 59.6161 64.6739 59.8958 65.1916 60.121C65.5898 60.2928 66.0993 60.4228 66.7203 60.5098C67.3425 60.5957 67.9298 60.6387 68.4823 60.6387C69.7255 60.6387 70.8491 60.4321 71.8508 60.0177C72.8525 59.6021 73.6511 58.9243 74.2466 57.9829C74.8432 57.0415 75.1404 55.7763 75.1404 54.1884V43.1776C75.1404 42.7284 74.9941 42.3523 74.7004 42.0505C74.4068 41.7476 74.0353 41.5967 73.5861 41.5967Z" fill="#FF914D"/>
<path d="M88.7932 41.5967C88.3439 41.5967 87.9725 41.7476 87.6788 42.0505C87.3852 42.3523 87.2389 42.7284 87.2389 43.1776V49.8089C87.2389 50.4659 87.1263 51.0231 86.9023 51.4804C86.6771 51.9377 86.3579 52.2836 85.9435 52.517C85.5291 52.7503 85.0196 52.8663 84.4148 52.8663C83.5338 52.8663 82.8478 52.6377 82.3557 52.1803C81.8624 51.723 81.6163 50.9325 81.6163 49.8089V43.1776C81.6163 42.7284 81.47 42.3523 81.1764 42.0505C80.8827 41.7476 80.5113 41.5967 80.062 41.5967C79.6128 41.5967 79.2414 41.7476 78.9489 42.0505C78.6541 42.3523 78.5078 42.7284 78.5078 43.1776V50.7422C78.5078 51.7091 78.6982 52.5692 79.0777 53.3202C79.4573 54.0712 79.9889 54.6585 80.6714 55.081C81.3528 55.5047 82.1525 55.716 83.0672 55.716C83.8449 55.716 84.5356 55.6208 85.1403 55.4316C85.745 55.2412 86.2674 54.9615 86.7073 54.5889C86.9093 54.4194 87.0938 54.2256 87.2645 54.0143V54.2917C87.2645 55.1727 87.131 55.8669 86.8628 56.3776C86.5947 56.886 86.1977 57.2493 85.6719 57.4652C85.1449 57.6811 84.4833 57.789 83.6894 57.789C83.102 57.789 82.5843 57.6985 82.1351 57.5174C81.6859 57.3352 81.3226 57.2017 81.0464 57.1158C80.6668 56.9765 80.3035 56.9986 79.9587 57.1797C79.6128 57.3619 79.3633 57.702 79.2077 58.2034C79.0859 58.583 79.1253 58.9417 79.3238 59.2783C79.5223 59.6161 79.881 59.8958 80.3987 60.121C80.7968 60.2928 81.3064 60.4228 81.9274 60.5098C82.5495 60.5957 83.1369 60.6387 83.6894 60.6387C84.9325 60.6387 86.0561 60.4321 87.0578 60.0177C88.0596 59.6021 88.8582 58.9243 89.4536 57.9829C90.0502 57.0415 90.3474 55.7763 90.3474 54.1884V43.1776C90.3474 42.7284 90.2011 42.3523 89.9075 42.0505C89.6138 41.7476 89.2424 41.5967 88.7932 41.5967Z" fill="#FF914D"/>
<path d="M103.806 50.7294C103.487 51.3945 103.046 51.9169 102.485 52.2964C101.924 52.6771 101.263 52.8663 100.503 52.8663C99.7426 52.8663 99.0786 52.6771 98.5087 52.2964C97.9388 51.9169 97.4931 51.3945 97.1739 50.7294C96.8547 50.0643 96.6945 49.3261 96.6945 48.5147C96.6945 47.6848 96.8547 46.9465 97.1739 46.2989C97.4931 45.6512 97.9388 45.1381 98.5087 44.7574C99.0786 44.3778 99.7426 44.1875 100.503 44.1875C101.263 44.1875 101.924 44.3778 102.485 44.7574C103.046 45.1381 103.487 45.6512 103.806 46.2989C104.126 46.9465 104.286 47.6848 104.286 48.5147C104.286 49.3261 104.126 50.0643 103.806 50.7294ZM106.423 44.7841C105.862 43.7127 105.102 42.8712 104.143 42.2571C103.184 41.6443 102.1 41.3378 100.892 41.3378C100.287 41.3378 99.7124 41.4411 99.1692 41.6489C98.6248 41.8567 98.1454 42.1202 97.731 42.4394C97.3573 42.7272 97.0578 43.0151 96.8245 43.303V43.1776C96.8245 42.7284 96.6771 42.3523 96.3834 42.0505C96.0897 41.7487 95.7183 41.5967 95.2691 41.5967C94.8199 41.5967 94.4496 41.7487 94.1559 42.0505C93.8623 42.3523 93.7148 42.7284 93.7148 43.1776V59.0589C93.7148 59.5255 93.8623 59.9051 94.1559 60.1988C94.4496 60.4924 94.8199 60.6387 95.2691 60.6387C95.7183 60.6387 96.0897 60.4878 96.3834 60.186C96.6771 59.883 96.8245 59.5081 96.8245 59.0589V53.976C97.0079 54.1606 97.218 54.3428 97.4594 54.525C97.9167 54.8709 98.4472 55.1553 99.0519 55.3793C99.6567 55.6045 100.304 55.7171 100.995 55.7171C102.17 55.7171 103.227 55.4107 104.17 54.7967C105.11 54.1838 105.862 53.3376 106.423 52.2581C106.984 51.1786 107.265 49.9308 107.265 48.5147C107.265 47.0986 106.984 45.8543 106.423 44.7841Z" fill="#FF914D"/>
<path d="M33.1135 48.5646C36.4646 49.0196 38.0339 52.9905 38.6247 54.6376C39.2144 56.2847 38.8801 57.4211 37.9642 57.0218C37.0484 56.6236 34.4391 53.7264 32.5807 53.7183C30.7224 53.7102 28.2929 55.2261 27.2076 55.8599C26.1223 56.4936 24.9384 56.0328 25.5721 54.438C26.2059 52.8419 29.3863 48.0585 33.1135 48.5646Z" fill="#FF914D"/>
<path d="M41.9909 40.6213C45.5695 43.5986 44.5016 49.3767 43.9874 51.7307C43.4732 54.0836 42.2544 55.1642 41.4767 54.0313C40.6979 52.8973 39.7693 47.6112 37.6068 46.2451C35.4444 44.88 31.5036 44.8742 29.7741 44.822C28.0458 44.7686 27 43.3664 28.9036 41.9677C30.8084 40.569 38.0119 37.3097 41.9909 40.6213Z" fill="#FF914D"/>
<path d="M274.755 177.383C274.732 177.383 274.709 177.384 274.686 177.384C273.813 179.766 272.94 182.147 272.053 184.567H276.235C275.737 182.153 275.246 179.767 274.755 177.383ZM282.351 191.471C280.863 191.476 279.373 191.485 277.884 191.477C277.799 191.476 277.66 191.338 277.639 191.243C277.46 190.457 277.297 189.666 277.145 188.873C277.101 188.642 277.018 188.557 276.764 188.559C274.824 188.572 272.885 188.574 270.944 188.558C270.657 188.555 270.547 188.656 270.46 188.911C270.191 189.696 269.902 190.474 269.603 191.248C269.565 191.348 269.426 191.477 269.332 191.477C267.681 191.491 266.029 191.486 264.379 191.485C264.348 191.485 264.316 191.465 264.25 191.443C264.572 190.671 264.887 189.908 265.206 189.144C267.376 183.964 269.551 178.785 271.715 173.603C272.16 172.534 272.944 171.989 274.093 171.978C275.398 171.966 276.702 171.975 278.007 171.961C278.252 171.959 278.308 172.066 278.352 172.278C279.241 176.58 280.138 180.881 281.036 185.18C281.449 187.156 281.863 189.13 282.277 191.104C282.294 191.182 282.326 191.256 282.351 191.333V191.471Z" fill="white"/>
<path d="M219.984 172.206C220.032 172.006 220.155 171.953 220.359 171.954C222.922 171.963 225.485 171.963 228.048 171.966C228.209 171.966 228.372 171.975 228.532 171.986C229.642 172.07 230.305 172.669 230.52 173.764C231.258 177.509 231.998 181.252 232.737 184.996C232.746 185.038 232.762 185.077 232.804 185.213C233.054 184.557 233.276 183.985 233.49 183.41C234.862 179.713 236.234 176.016 237.596 172.316C237.694 172.051 237.815 171.953 238.113 171.956C239.613 171.973 241.115 171.961 242.615 171.958C242.75 171.958 242.886 171.958 243.08 171.958C242.994 172.174 242.928 172.34 242.86 172.505C240.339 178.701 237.817 184.896 235.305 191.096C235.188 191.386 235.055 191.491 234.734 191.487C233.221 191.466 231.709 191.465 230.197 191.483C229.879 191.488 229.761 191.38 229.685 191.09C228.933 188.212 228.168 185.338 227.406 182.463C226.733 179.922 226.056 177.382 225.39 174.839C225.326 174.598 225.214 174.445 224.991 174.322C223.467 173.481 221.86 172.853 220.179 172.412C220.113 172.395 220.049 172.367 219.984 172.344V172.206Z" fill="white"/>
<path d="M264.617 176.651C263.183 175.953 261.713 175.629 260.157 175.706C259.504 175.738 258.875 175.848 258.302 176.186C257.338 176.76 257.216 177.782 258.114 178.446C258.833 178.977 259.658 179.362 260.424 179.832C261.218 180.32 262.05 180.764 262.772 181.345C264.45 182.695 264.9 184.494 264.425 186.543C263.982 188.46 262.771 189.78 261.057 190.667C259.431 191.509 257.67 191.793 255.864 191.792C254.125 191.79 252.414 191.54 250.757 190.984C250.616 190.936 250.468 190.893 250.342 190.816C250.271 190.774 250.189 190.657 250.2 190.589C250.414 189.2 250.64 187.814 250.87 186.387C251.441 186.625 251.974 186.86 252.515 187.072C253.983 187.646 255.511 187.857 257.067 187.636C257.607 187.559 258.165 187.33 258.624 187.03C259.504 186.456 259.562 185.348 258.757 184.673C258.251 184.247 257.653 183.925 257.086 183.576C256.146 182.995 255.14 182.504 254.261 181.845C251.418 179.714 251.983 176.456 253.499 174.55C254.666 173.084 256.251 172.305 258.046 171.906C260.402 171.381 262.719 171.54 265.003 172.311C265.269 172.4 265.32 172.51 265.271 172.783C265.058 173.975 264.874 175.173 264.679 176.369C264.667 176.446 264.646 176.522 264.617 176.651Z" fill="white"/>
<path d="M250.173 171.957C249.117 178.489 248.07 184.962 247.018 191.461H241.969C242.132 190.43 242.289 189.419 242.453 188.409C242.838 186.018 243.228 183.628 243.615 181.236C244.101 178.231 244.587 175.226 245.07 172.22C245.098 172.047 245.15 171.954 245.349 171.954C246.929 171.96 248.51 171.957 250.173 171.957Z" fill="white"/>
<path d="M195.849 46.0809C195.849 46.437 195.765 46.773 195.597 47.0889C195.429 47.4047 195.16 47.6634 194.79 47.8651C194.421 48.0599 193.947 48.1574 193.369 48.1574H192.099V51H190.95V43.9943H193.369C193.907 43.9943 194.36 44.0883 194.73 44.2765C195.106 44.4579 195.385 44.7066 195.567 45.0224C195.755 45.3383 195.849 45.6911 195.849 46.0809ZM193.369 47.2199C193.806 47.2199 194.132 47.1225 194.347 46.9276C194.562 46.726 194.669 46.4437 194.669 46.0809C194.669 45.3148 194.236 44.9317 193.369 44.9317H192.099V47.2199H193.369ZM199.818 45.3551C200.241 45.3551 200.617 45.4458 200.947 45.6272C201.283 45.8087 201.545 46.0775 201.733 46.4337C201.928 46.7898 202.025 47.2199 202.025 47.7239V51H200.886V47.8953C200.886 47.398 200.762 47.0183 200.513 46.7562C200.265 46.4874 199.925 46.353 199.495 46.353C199.065 46.353 198.722 46.4874 198.467 46.7562C198.218 47.0183 198.094 47.398 198.094 47.8953V51H196.945V43.5406H198.094V46.0909C198.289 45.8557 198.534 45.6743 198.83 45.5466C199.132 45.4189 199.462 45.3551 199.818 45.3551ZM208.491 45.4458L205.084 53.6108H203.894L205.023 50.9093L202.836 45.4458H204.116L205.678 49.6795L207.301 45.4458H208.491ZM211.374 51.0907C210.937 51.0907 210.544 51.0134 210.195 50.8589C209.852 50.6976 209.58 50.4825 209.378 50.2137C209.177 49.9382 209.069 49.6325 209.056 49.2964H210.245C210.265 49.5316 210.376 49.7299 210.578 49.8912C210.786 50.0457 211.045 50.123 211.354 50.123C211.677 50.123 211.925 50.0625 212.1 49.9416C212.281 49.8139 212.372 49.6526 212.372 49.4577C212.372 49.2494 212.271 49.0948 212.07 48.994C211.875 48.8932 211.562 48.7824 211.132 48.6614C210.716 48.5471 210.376 48.4363 210.114 48.3287C209.852 48.2212 209.624 48.0566 209.429 47.8348C209.24 47.613 209.146 47.3207 209.146 46.9578C209.146 46.6621 209.234 46.3933 209.408 46.1514C209.583 45.9028 209.832 45.7079 210.154 45.5668C210.484 45.4256 210.86 45.3551 211.283 45.3551C211.915 45.3551 212.422 45.5164 212.806 45.8389C213.195 46.1548 213.404 46.5882 213.43 47.1393H212.281C212.261 46.8906 212.16 46.6924 211.979 46.5445C211.797 46.3967 211.552 46.3228 211.243 46.3228C210.941 46.3228 210.709 46.3799 210.548 46.4941C210.386 46.6084 210.306 46.7596 210.306 46.9478C210.306 47.0956 210.359 47.2199 210.467 47.3207C210.574 47.4215 210.705 47.5022 210.86 47.5626C211.015 47.6164 211.243 47.687 211.545 47.7743C211.949 47.8819 212.278 47.9927 212.533 48.107C212.795 48.2145 213.021 48.3758 213.209 48.5908C213.397 48.8059 213.494 49.0915 213.501 49.4476C213.501 49.7635 213.414 50.0457 213.239 50.2944C213.064 50.543 212.816 50.7379 212.493 50.879C212.177 51.0202 211.804 51.0907 211.374 51.0907ZM215.327 44.7099C215.119 44.7099 214.944 44.6394 214.803 44.4983C214.662 44.3571 214.592 44.1824 214.592 43.9741C214.592 43.7658 214.662 43.591 214.803 43.4499C214.944 43.3088 215.119 43.2382 215.327 43.2382C215.529 43.2382 215.7 43.3088 215.841 43.4499C215.983 43.591 216.053 43.7658 216.053 43.9741C216.053 44.1824 215.983 44.3571 215.841 44.4983C215.7 44.6394 215.529 44.7099 215.327 44.7099ZM215.892 45.4458V51H214.743V45.4458H215.892ZM217.018 48.2179C217.018 47.6466 217.132 47.146 217.36 46.7159C217.595 46.2791 217.918 45.9431 218.328 45.7079C218.738 45.4727 219.208 45.3551 219.739 45.3551C220.411 45.3551 220.966 45.5164 221.402 45.8389C221.846 46.1548 222.145 46.6084 222.3 47.1998H221.06C220.959 46.9242 220.798 46.7092 220.576 46.5546C220.354 46.4001 220.075 46.3228 219.739 46.3228C219.269 46.3228 218.892 46.4908 218.61 46.8268C218.335 47.1561 218.197 47.6198 218.197 48.2179C218.197 48.816 218.335 49.283 218.61 49.619C218.892 49.955 219.269 50.123 219.739 50.123C220.404 50.123 220.845 49.8307 221.06 49.246H222.3C222.138 49.8105 221.836 50.2608 221.392 50.5968C220.949 50.9261 220.398 51.0907 219.739 51.0907C219.208 51.0907 218.738 50.9731 218.328 50.7379C217.918 50.496 217.595 50.16 217.36 49.7299C217.132 49.2931 217.018 48.7891 217.018 48.2179ZM223.062 48.1977C223.062 47.6399 223.176 47.146 223.404 46.7159C223.64 46.2858 223.956 45.9532 224.352 45.718C224.755 45.476 225.199 45.3551 225.683 45.3551C226.119 45.3551 226.499 45.4424 226.822 45.6172C227.151 45.7852 227.413 45.9969 227.608 46.2522V45.4458H228.767V51H227.608V50.1734C227.413 50.4355 227.148 50.6539 226.812 50.8286C226.476 51.0034 226.093 51.0907 225.662 51.0907C225.185 51.0907 224.748 50.9698 224.352 50.7278C223.956 50.4792 223.64 50.1365 223.404 49.6997C223.176 49.2561 223.062 48.7555 223.062 48.1977ZM227.608 48.2179C227.608 47.8348 227.527 47.5022 227.366 47.2199C227.211 46.9377 227.006 46.7226 226.751 46.5748C226.496 46.4269 226.22 46.353 225.925 46.353C225.629 46.353 225.353 46.4269 225.098 46.5748C224.843 46.7159 224.634 46.9276 224.473 47.2098C224.318 47.4854 224.241 47.8147 224.241 48.1977C224.241 48.5807 224.318 48.9168 224.473 49.2057C224.634 49.4947 224.843 49.7165 225.098 49.871C225.36 50.0189 225.636 50.0928 225.925 50.0928C226.22 50.0928 226.496 50.0189 226.751 49.871C227.006 49.7232 227.211 49.5081 227.366 49.2259C227.527 48.9369 227.608 48.6009 227.608 48.2179ZM231.426 43.5406V51H230.276V43.5406H231.426ZM240.966 51L240.099 50.1331C239.763 50.4691 239.397 50.7211 239 50.8891C238.604 51.0504 238.16 51.131 237.67 51.131C237.172 51.131 236.732 51.0437 236.349 50.869C235.966 50.6942 235.67 50.4456 235.462 50.123C235.254 49.7937 235.15 49.414 235.15 48.984C235.15 48.5001 235.287 48.07 235.563 47.6937C235.838 47.3106 236.248 47.0082 236.793 46.7865C236.598 46.5513 236.46 46.3329 236.379 46.1313C236.299 45.9229 236.258 45.6944 236.258 45.4458C236.258 45.1367 236.336 44.8611 236.49 44.6192C236.652 44.3773 236.88 44.1858 237.176 44.0447C237.471 43.9035 237.814 43.833 238.204 43.833C238.6 43.833 238.936 43.9102 239.212 44.0648C239.494 44.2127 239.703 44.4176 239.837 44.6797C239.978 44.9418 240.035 45.2341 240.008 45.5567H238.859C238.866 45.308 238.805 45.1165 238.678 44.9821C238.55 44.841 238.375 44.7704 238.154 44.7704C237.932 44.7704 237.75 44.8376 237.609 44.972C237.475 45.0997 237.408 45.2576 237.408 45.4458C237.408 45.6272 237.458 45.8087 237.559 45.9901C237.666 46.1649 237.851 46.3933 238.113 46.6756L239.968 48.5203L240.684 47.3409H241.924L241.016 48.8932L240.764 49.3065L242.468 51H240.966ZM237.67 50.1533C238.301 50.1533 238.859 49.8945 239.343 49.3771L237.488 47.5122C236.695 47.8281 236.299 48.3052 236.299 48.9436C236.299 49.2864 236.426 49.5753 236.682 49.8105C236.937 50.039 237.266 50.1533 237.67 50.1533ZM251.878 43.9943L249.247 51H247.916L245.275 43.9943H246.505L248.582 49.8206L250.668 43.9943H251.878ZM253.423 44.7099C253.215 44.7099 253.04 44.6394 252.899 44.4983C252.758 44.3571 252.688 44.1824 252.688 43.9741C252.688 43.7658 252.758 43.591 252.899 43.4499C253.04 43.3088 253.215 43.2382 253.423 43.2382C253.625 43.2382 253.796 43.3088 253.938 43.4499C254.079 43.591 254.149 43.7658 254.149 43.9741C254.149 44.1824 254.079 44.3571 253.938 44.4983C253.796 44.6394 253.625 44.7099 253.423 44.7099ZM253.988 45.4458V51H252.839V45.4458H253.988ZM256.646 46.2522C256.814 45.97 257.036 45.7516 257.311 45.597C257.593 45.4357 257.926 45.3551 258.309 45.3551V46.5445H258.017C257.567 46.5445 257.224 46.6588 256.989 46.8873C256.76 47.1158 256.646 47.5122 256.646 48.0767V51H255.497V45.4458H256.646V46.2522ZM260.706 46.3833V49.4577C260.706 49.6661 260.753 49.8173 260.847 49.9113C260.948 49.9987 261.116 50.0424 261.351 50.0424H262.057V51H261.15C260.632 51 260.236 50.879 259.96 50.6371C259.685 50.3952 259.547 50.0021 259.547 49.4577V46.3833H258.892V45.4458H259.547V44.0648H260.706V45.4458H262.057V46.3833H260.706ZM268.146 45.4458V51H266.997V50.3448C266.815 50.5733 266.577 50.7547 266.281 50.8891C265.992 51.0168 265.683 51.0806 265.354 51.0806C264.917 51.0806 264.524 50.9899 264.174 50.8085C263.832 50.627 263.559 50.3582 263.358 50.0021C263.163 49.6459 263.066 49.2158 263.066 48.7118V45.4458H264.205V48.5404C264.205 49.0377 264.329 49.4208 264.578 49.6896C264.826 49.9517 265.166 50.0827 265.596 50.0827C266.026 50.0827 266.365 49.9517 266.614 49.6896C266.869 49.4208 266.997 49.0377 266.997 48.5404V45.4458H268.146ZM269.279 48.1977C269.279 47.6399 269.393 47.146 269.622 46.7159C269.857 46.2858 270.173 45.9532 270.569 45.718C270.973 45.476 271.416 45.3551 271.9 45.3551C272.337 45.3551 272.716 45.4424 273.039 45.6172C273.368 45.7852 273.63 45.9969 273.825 46.2522V45.4458H274.985V51H273.825V50.1734C273.63 50.4355 273.365 50.6539 273.029 50.8286C272.693 51.0034 272.31 51.0907 271.88 51.0907C271.403 51.0907 270.966 50.9698 270.569 50.7278C270.173 50.4792 269.857 50.1365 269.622 49.6997C269.393 49.2561 269.279 48.7555 269.279 48.1977ZM273.825 48.2179C273.825 47.8348 273.745 47.5022 273.583 47.2199C273.429 46.9377 273.224 46.7226 272.968 46.5748C272.713 46.4269 272.438 46.353 272.142 46.353C271.846 46.353 271.571 46.4269 271.315 46.5748C271.06 46.7159 270.852 46.9276 270.69 47.2098C270.536 47.4854 270.459 47.8147 270.459 48.1977C270.459 48.5807 270.536 48.9168 270.69 49.2057C270.852 49.4947 271.06 49.7165 271.315 49.871C271.577 50.0189 271.853 50.0928 272.142 50.0928C272.438 50.0928 272.713 50.0189 272.968 49.871C273.224 49.7232 273.429 49.5081 273.583 49.2259C273.745 48.9369 273.825 48.6009 273.825 48.2179ZM277.643 43.5406V51H276.494V43.5406H277.643Z" fill="#FFFBFB"/>
<path d="M28.5894 102.632C28.1294 102.632 27.716 102.552 27.3494 102.392C26.9894 102.225 26.706 101.998 26.4994 101.712C26.2927 101.418 26.186 101.082 26.1794 100.702H27.1494C27.1827 101.028 27.316 101.305 27.5494 101.532C27.7894 101.752 28.136 101.862 28.5894 101.862C29.0227 101.862 29.3627 101.755 29.6094 101.542C29.8627 101.322 29.9894 101.042 29.9894 100.702C29.9894 100.435 29.916 100.218 29.7694 100.052C29.6227 99.8849 29.4394 99.7582 29.2194 99.6715C28.9994 99.5849 28.7027 99.4915 28.3294 99.3915C27.8694 99.2715 27.4994 99.1515 27.2194 99.0315C26.946 98.9115 26.7094 98.7249 26.5094 98.4715C26.316 98.2115 26.2194 97.8649 26.2194 97.4315C26.2194 97.0515 26.316 96.7149 26.5094 96.4215C26.7027 96.1282 26.9727 95.9015 27.3194 95.7415C27.6727 95.5815 28.076 95.5015 28.5294 95.5015C29.1827 95.5015 29.716 95.6649 30.1294 95.9915C30.5494 96.3182 30.786 96.7515 30.8394 97.2915H29.8394C29.806 97.0249 29.666 96.7915 29.4194 96.5915C29.1727 96.3849 28.846 96.2815 28.4394 96.2815C28.0594 96.2815 27.7494 96.3815 27.5094 96.5815C27.2694 96.7749 27.1494 97.0482 27.1494 97.4015C27.1494 97.6549 27.2194 97.8615 27.3594 98.0215C27.506 98.1815 27.6827 98.3049 27.8894 98.3915C28.1027 98.4715 28.3994 98.5649 28.7794 98.6715C29.2394 98.7982 29.6094 98.9249 29.8894 99.0515C30.1694 99.1715 30.4094 99.3615 30.6094 99.6215C30.8094 99.8749 30.9094 100.222 30.9094 100.662C30.9094 101.002 30.8194 101.322 30.6394 101.622C30.4594 101.922 30.1927 102.165 29.8394 102.352C29.486 102.538 29.0694 102.632 28.5894 102.632ZM33.1585 98.0915C33.3385 97.7782 33.6052 97.5182 33.9585 97.3115C34.3185 97.0982 34.7352 96.9915 35.2085 96.9915C35.6952 96.9915 36.1352 97.1082 36.5285 97.3415C36.9285 97.5749 37.2418 97.9049 37.4685 98.3315C37.6952 98.7515 37.8085 99.2415 37.8085 99.8015C37.8085 100.355 37.6952 100.848 37.4685 101.282C37.2418 101.715 36.9285 102.052 36.5285 102.292C36.1352 102.532 35.6952 102.652 35.2085 102.652C34.7418 102.652 34.3285 102.548 33.9685 102.342C33.6152 102.128 33.3452 101.865 33.1585 101.552V105.162H32.2485V97.0815H33.1585V98.0915ZM36.8785 99.8015C36.8785 99.3882 36.7952 99.0282 36.6285 98.7215C36.4618 98.4149 36.2352 98.1815 35.9485 98.0215C35.6685 97.8615 35.3585 97.7815 35.0185 97.7815C34.6852 97.7815 34.3752 97.8649 34.0885 98.0315C33.8085 98.1915 33.5818 98.4282 33.4085 98.7415C33.2418 99.0482 33.1585 99.4049 33.1585 99.8115C33.1585 100.225 33.2418 100.588 33.4085 100.902C33.5818 101.208 33.8085 101.445 34.0885 101.612C34.3752 101.772 34.6852 101.852 35.0185 101.852C35.3585 101.852 35.6685 101.772 35.9485 101.612C36.2352 101.445 36.4618 101.208 36.6285 100.902C36.7952 100.588 36.8785 100.222 36.8785 99.8015ZM44.0063 99.6115C44.0063 99.7849 43.9963 99.9682 43.9763 100.162H39.5963C39.6297 100.702 39.813 101.125 40.1463 101.432C40.4863 101.732 40.8963 101.882 41.3763 101.882C41.7697 101.882 42.0963 101.792 42.3563 101.612C42.623 101.425 42.8097 101.178 42.9163 100.872H43.8963C43.7497 101.398 43.4563 101.828 43.0163 102.162C42.5763 102.488 42.0297 102.652 41.3763 102.652C40.8563 102.652 40.3897 102.535 39.9763 102.302C39.5697 102.068 39.2497 101.738 39.0163 101.312C38.783 100.878 38.6663 100.378 38.6663 99.8115C38.6663 99.2449 38.7797 98.7482 39.0063 98.3215C39.233 97.8949 39.5497 97.5682 39.9563 97.3415C40.3697 97.1082 40.843 96.9915 41.3763 96.9915C41.8963 96.9915 42.3563 97.1049 42.7563 97.3315C43.1563 97.5582 43.463 97.8715 43.6763 98.2715C43.8963 98.6649 44.0063 99.1115 44.0063 99.6115ZM43.0663 99.4215C43.0663 99.0749 42.9897 98.7782 42.8363 98.5315C42.683 98.2782 42.473 98.0882 42.2063 97.9615C41.9463 97.8282 41.6563 97.7615 41.3363 97.7615C40.8763 97.7615 40.483 97.9082 40.1563 98.2015C39.8363 98.4949 39.653 98.9015 39.6063 99.4215H43.0663ZM47.8775 96.9815C48.5442 96.9815 49.0842 97.1849 49.4975 97.5915C49.9108 97.9915 50.1175 98.5715 50.1175 99.3315V102.562H49.2175V99.4615C49.2175 98.9149 49.0808 98.4982 48.8075 98.2115C48.5342 97.9182 48.1608 97.7715 47.6875 97.7715C47.2075 97.7715 46.8242 97.9215 46.5375 98.2215C46.2575 98.5215 46.1175 98.9582 46.1175 99.5315V102.562H45.2075V97.0815H46.1175V97.8615C46.2975 97.5815 46.5408 97.3649 46.8475 97.2115C47.1608 97.0582 47.5042 96.9815 47.8775 96.9815ZM52.714 97.8315V101.062C52.714 101.328 52.7707 101.518 52.884 101.632C52.9973 101.738 53.194 101.792 53.474 101.792H54.144V102.562H53.324C52.8173 102.562 52.4373 102.445 52.184 102.212C51.9307 101.978 51.804 101.595 51.804 101.062V97.8315H51.094V97.0815H51.804V95.7015H52.714V97.0815H54.144V97.8315H52.714Z" fill="#85949F"/>
<path d="M256.496 101.822H258.936V102.562H255.586V95.5915H256.496V101.822ZM260.373 96.1915C260.199 96.1915 260.053 96.1315 259.933 96.0115C259.813 95.8915 259.753 95.7449 259.753 95.5715C259.753 95.3982 259.813 95.2515 259.933 95.1315C260.053 95.0115 260.199 94.9515 260.373 94.9515C260.539 94.9515 260.679 95.0115 260.793 95.1315C260.913 95.2515 260.973 95.3982 260.973 95.5715C260.973 95.7449 260.913 95.8915 260.793 96.0115C260.679 96.1315 260.539 96.1915 260.373 96.1915ZM260.813 97.0815V102.562H259.903V97.0815H260.813ZM268.954 96.9815C269.38 96.9815 269.76 97.0715 270.094 97.2515C270.427 97.4249 270.69 97.6882 270.884 98.0415C271.077 98.3949 271.174 98.8249 271.174 99.3315V102.562H270.274V99.4615C270.274 98.9149 270.137 98.4982 269.864 98.2115C269.597 97.9182 269.234 97.7715 268.774 97.7715C268.3 97.7715 267.924 97.9249 267.644 98.2315C267.364 98.5315 267.224 98.9682 267.224 99.5415V102.562H266.324V99.4615C266.324 98.9149 266.187 98.4982 265.914 98.2115C265.647 97.9182 265.284 97.7715 264.824 97.7715C264.35 97.7715 263.974 97.9249 263.694 98.2315C263.414 98.5315 263.274 98.9682 263.274 99.5415V102.562H262.364V97.0815H263.274V97.8715C263.454 97.5849 263.694 97.3649 263.994 97.2115C264.3 97.0582 264.637 96.9815 265.004 96.9815C265.464 96.9815 265.87 97.0849 266.224 97.2915C266.577 97.4982 266.84 97.8015 267.014 98.2015C267.167 97.8149 267.42 97.5149 267.774 97.3015C268.127 97.0882 268.52 96.9815 268.954 96.9815ZM273.136 96.1915C272.963 96.1915 272.816 96.1315 272.696 96.0115C272.576 95.8915 272.516 95.7449 272.516 95.5715C272.516 95.3982 272.576 95.2515 272.696 95.1315C272.816 95.0115 272.963 94.9515 273.136 94.9515C273.303 94.9515 273.443 95.0115 273.556 95.1315C273.676 95.2515 273.736 95.3982 273.736 95.5715C273.736 95.7449 273.676 95.8915 273.556 96.0115C273.443 96.1315 273.303 96.1915 273.136 96.1915ZM273.576 97.0815V102.562H272.666V97.0815H273.576ZM276.237 97.8315V101.062C276.237 101.328 276.294 101.518 276.407 101.632C276.521 101.738 276.717 101.792 276.997 101.792H277.667V102.562H276.847C276.341 102.562 275.961 102.445 275.707 102.212C275.454 101.978 275.327 101.595 275.327 101.062V97.8315H274.617V97.0815H275.327V95.7015H276.237V97.0815H277.667V97.8315H276.237Z" fill="#85949F"/>
<path d="M28.7894 106.792V115.192H27.6014V107.836H25.7054V106.792H28.7894ZM33.3508 106.696C34.4788 106.696 35.3468 107.06 35.9548 107.788C36.5708 108.516 36.8788 109.548 36.8788 110.884C36.8788 111.82 36.7108 112.62 36.3748 113.284C36.0468 113.94 35.5828 114.44 34.9828 114.784C34.3908 115.12 33.6988 115.288 32.9068 115.288C32.4988 115.288 32.1148 115.248 31.7548 115.168C31.3948 115.08 31.0828 114.956 30.8188 114.796L31.2748 113.86C31.6828 114.124 32.2228 114.256 32.8948 114.256C33.7668 114.256 34.4468 113.988 34.9348 113.452C35.4308 112.908 35.6788 112.12 35.6788 111.088V110.788C35.4388 111.148 35.1068 111.424 34.6828 111.616C34.2588 111.8 33.7828 111.892 33.2548 111.892C32.7028 111.892 32.2068 111.788 31.7668 111.58C31.3348 111.372 30.9948 111.076 30.7468 110.692C30.5068 110.3 30.3868 109.852 30.3868 109.348C30.3868 108.82 30.5148 108.356 30.7708 107.956C31.0348 107.556 31.3908 107.248 31.8388 107.032C32.2868 106.808 32.7908 106.696 33.3508 106.696ZM33.4588 110.92C33.8348 110.92 34.1708 110.848 34.4668 110.704C34.7628 110.56 34.9908 110.364 35.1508 110.116C35.3188 109.868 35.4028 109.592 35.4028 109.288C35.4028 108.992 35.3228 108.724 35.1628 108.484C35.0108 108.236 34.7828 108.04 34.4788 107.896C34.1828 107.744 33.8228 107.668 33.3988 107.668C32.8468 107.668 32.3988 107.816 32.0548 108.112C31.7188 108.408 31.5508 108.804 31.5508 109.3C31.5508 109.796 31.7228 110.192 32.0668 110.488C32.4108 110.776 32.8748 110.92 33.4588 110.92ZM45.341 113.128H43.745V115.192H42.581V113.128H37.913V112.288L42.209 106.792H43.505L39.389 112.096H42.617V110.272H43.745V112.096H45.341V113.128ZM48.7023 106.696C49.8303 106.696 50.6983 107.06 51.3063 107.788C51.9223 108.516 52.2303 109.548 52.2303 110.884C52.2303 111.82 52.0623 112.62 51.7263 113.284C51.3983 113.94 50.9343 114.44 50.3343 114.784C49.7423 115.12 49.0503 115.288 48.2583 115.288C47.8503 115.288 47.4663 115.248 47.1063 115.168C46.7463 115.08 46.4343 114.956 46.1703 114.796L46.6263 113.86C47.0343 114.124 47.5743 114.256 48.2463 114.256C49.1183 114.256 49.7983 113.988 50.2863 113.452C50.7823 112.908 51.0303 112.12 51.0303 111.088V110.788C50.7903 111.148 50.4583 111.424 50.0343 111.616C49.6103 111.8 49.1343 111.892 48.6063 111.892C48.0543 111.892 47.5583 111.788 47.1183 111.58C46.6863 111.372 46.3463 111.076 46.0983 110.692C45.8583 110.3 45.7383 109.852 45.7383 109.348C45.7383 108.82 45.8663 108.356 46.1223 107.956C46.3863 107.556 46.7423 107.248 47.1903 107.032C47.6383 106.808 48.1423 106.696 48.7023 106.696ZM48.8103 110.92C49.1863 110.92 49.5223 110.848 49.8183 110.704C50.1143 110.56 50.3423 110.364 50.5023 110.116C50.6703 109.868 50.7543 109.592 50.7543 109.288C50.7543 108.992 50.6743 108.724 50.5143 108.484C50.3623 108.236 50.1343 108.04 49.8303 107.896C49.5343 107.744 49.1743 107.668 48.7503 107.668C48.1983 107.668 47.7503 107.816 47.4063 108.112C47.0703 108.408 46.9023 108.804 46.9023 109.3C46.9023 109.796 47.0743 110.192 47.4183 110.488C47.7623 110.776 48.2263 110.92 48.8103 110.92ZM54.036 115.264C53.812 115.264 53.62 115.188 53.46 115.036C53.3 114.876 53.22 114.676 53.22 114.436C53.22 114.204 53.3 114.012 53.46 113.86C53.62 113.7 53.812 113.62 54.036 113.62C54.26 113.62 54.448 113.696 54.6 113.848C54.752 114 54.828 114.196 54.828 114.436C54.828 114.676 54.748 114.876 54.588 115.036C54.436 115.188 54.252 115.264 54.036 115.264ZM59.2541 115.288C58.5901 115.288 57.9981 115.12 57.4781 114.784C56.9661 114.44 56.5621 113.944 56.2661 113.296C55.9701 112.648 55.8221 111.88 55.8221 110.992C55.8221 110.104 55.9701 109.336 56.2661 108.688C56.5621 108.04 56.9661 107.548 57.4781 107.212C57.9981 106.868 58.5901 106.696 59.2541 106.696C59.9101 106.696 60.4941 106.868 61.0061 107.212C61.5261 107.548 61.9341 108.04 62.2301 108.688C62.5261 109.336 62.6741 110.104 62.6741 110.992C62.6741 111.88 62.5261 112.648 62.2301 113.296C61.9341 113.944 61.5261 114.44 61.0061 114.784C60.4941 115.12 59.9101 115.288 59.2541 115.288ZM59.2541 114.22C59.9261 114.22 60.4621 113.944 60.8621 113.392C61.2701 112.84 61.4741 112.04 61.4741 110.992C61.4741 109.944 61.2701 109.144 60.8621 108.592C60.4621 108.04 59.9261 107.764 59.2541 107.764C58.5741 107.764 58.0301 108.04 57.6221 108.592C57.2221 109.144 57.0221 109.944 57.0221 110.992C57.0221 112.04 57.2221 112.84 57.6221 113.392C58.0301 113.944 58.5741 114.22 59.2541 114.22ZM67.45 110.092C68.002 110.092 68.494 110.196 68.926 110.404C69.366 110.612 69.71 110.912 69.958 111.304C70.206 111.688 70.33 112.132 70.33 112.636C70.33 113.164 70.198 113.628 69.934 114.028C69.678 114.428 69.322 114.74 68.866 114.964C68.418 115.18 67.914 115.288 67.354 115.288C66.226 115.288 65.354 114.924 64.738 114.196C64.13 113.468 63.826 112.436 63.826 111.1C63.826 110.164 63.99 109.368 64.318 108.712C64.654 108.048 65.118 107.548 65.71 107.212C66.31 106.868 67.006 106.696 67.798 106.696C68.206 106.696 68.59 106.74 68.95 106.828C69.31 106.908 69.622 107.028 69.886 107.188L69.43 108.124C69.03 107.86 68.494 107.728 67.822 107.728C66.95 107.728 66.266 108 65.77 108.544C65.274 109.08 65.026 109.864 65.026 110.896C65.026 111.024 65.03 111.124 65.038 111.196C65.278 110.836 65.606 110.564 66.022 110.38C66.446 110.188 66.922 110.092 67.45 110.092ZM67.306 114.316C67.858 114.316 68.306 114.168 68.65 113.872C68.994 113.576 69.166 113.18 69.166 112.684C69.166 112.188 68.99 111.796 68.638 111.508C68.294 111.212 67.83 111.064 67.246 111.064C66.87 111.064 66.534 111.136 66.238 111.28C65.95 111.424 65.722 111.62 65.554 111.868C65.394 112.116 65.314 112.392 65.314 112.696C65.314 112.992 65.39 113.264 65.542 113.512C65.702 113.752 65.93 113.948 66.226 114.1C66.53 114.244 66.89 114.316 67.306 114.316Z" fill="#FFFBFB"/>
<path d="M80.4909 113.092H76.0269L75.1029 115.192H73.8669L77.6709 106.792H78.8589L82.6749 115.192H81.4149L80.4909 113.092ZM80.0709 112.132L78.2589 108.016L76.4469 112.132H80.0709ZM90.024 114.148V115.192H83.928V106.792H89.856V107.836H85.128V110.416H89.34V111.436H85.128V114.148H90.024ZM91.967 106.792H95.507C96.395 106.792 97.183 106.968 97.871 107.32C98.559 107.672 99.091 108.168 99.467 108.808C99.851 109.44 100.043 110.168 100.043 110.992C100.043 111.816 99.851 112.548 99.467 113.188C99.091 113.82 98.559 114.312 97.871 114.664C97.183 115.016 96.395 115.192 95.507 115.192H91.967V106.792ZM95.435 114.148C96.115 114.148 96.711 114.016 97.223 113.752C97.743 113.488 98.143 113.12 98.423 112.648C98.703 112.168 98.843 111.616 98.843 110.992C98.843 110.368 98.703 109.82 98.423 109.348C98.143 108.868 97.743 108.496 97.223 108.232C96.711 107.968 96.115 107.836 95.435 107.836H93.167V114.148H95.435Z" fill="#AABBC6"/>
<path d="M207.304 114.148V115.192H201.268V114.376L204.688 111.076C205.104 110.676 205.384 110.332 205.528 110.044C205.672 109.748 205.744 109.452 205.744 109.156C205.744 108.716 205.588 108.376 205.276 108.136C204.972 107.888 204.532 107.764 203.956 107.764C203.028 107.764 202.312 108.068 201.808 108.676L200.992 107.968C201.32 107.568 201.748 107.256 202.276 107.032C202.812 106.808 203.408 106.696 204.064 106.696C204.944 106.696 205.644 106.908 206.164 107.332C206.684 107.748 206.944 108.316 206.944 109.036C206.944 109.484 206.848 109.908 206.656 110.308C206.464 110.708 206.1 111.164 205.564 111.676L202.996 114.148H207.304ZM210.691 110.14C211.891 110.14 212.771 110.368 213.331 110.824C213.899 111.272 214.183 111.888 214.183 112.672C214.183 113.168 214.063 113.616 213.823 114.016C213.591 114.408 213.235 114.72 212.755 114.952C212.283 115.176 211.699 115.288 211.003 115.288C210.411 115.288 209.839 115.2 209.287 115.024C208.735 114.84 208.279 114.588 207.919 114.268L208.471 113.32C208.759 113.592 209.127 113.812 209.575 113.98C210.023 114.14 210.495 114.22 210.991 114.22C211.623 114.22 212.111 114.088 212.455 113.824C212.807 113.552 212.983 113.184 212.983 112.72C212.983 112.216 212.791 111.836 212.407 111.58C212.023 111.316 211.367 111.184 210.439 111.184H208.531L208.975 106.792H213.715V107.836H209.983L209.755 110.14H210.691ZM218.613 115.288C217.949 115.288 217.357 115.12 216.837 114.784C216.325 114.44 215.921 113.944 215.625 113.296C215.329 112.648 215.181 111.88 215.181 110.992C215.181 110.104 215.329 109.336 215.625 108.688C215.921 108.04 216.325 107.548 216.837 107.212C217.357 106.868 217.949 106.696 218.613 106.696C219.269 106.696 219.853 106.868 220.365 107.212C220.885 107.548 221.293 108.04 221.589 108.688C221.885 109.336 222.033 110.104 222.033 110.992C222.033 111.88 221.885 112.648 221.589 113.296C221.293 113.944 220.885 114.44 220.365 114.784C219.853 115.12 219.269 115.288 218.613 115.288ZM218.613 114.22C219.285 114.22 219.821 113.944 220.221 113.392C220.629 112.84 220.833 112.04 220.833 110.992C220.833 109.944 220.629 109.144 220.221 108.592C219.821 108.04 219.285 107.764 218.613 107.764C217.933 107.764 217.389 108.04 216.981 108.592C216.581 109.144 216.381 109.944 216.381 110.992C216.381 112.04 216.581 112.84 216.981 113.392C217.389 113.944 217.933 114.22 218.613 114.22ZM226.617 115.288C225.953 115.288 225.361 115.12 224.841 114.784C224.329 114.44 223.925 113.944 223.629 113.296C223.333 112.648 223.185 111.88 223.185 110.992C223.185 110.104 223.333 109.336 223.629 108.688C223.925 108.04 224.329 107.548 224.841 107.212C225.361 106.868 225.953 106.696 226.617 106.696C227.273 106.696 227.857 106.868 228.369 107.212C228.889 107.548 229.297 108.04 229.593 108.688C229.889 109.336 230.037 110.104 230.037 110.992C230.037 111.88 229.889 112.648 229.593 113.296C229.297 113.944 228.889 114.44 228.369 114.784C227.857 115.12 227.273 115.288 226.617 115.288ZM226.617 114.22C227.289 114.22 227.825 113.944 228.225 113.392C228.633 112.84 228.837 112.04 228.837 110.992C228.837 109.944 228.633 109.144 228.225 108.592C227.825 108.04 227.289 107.764 226.617 107.764C225.937 107.764 225.393 108.04 224.985 108.592C224.585 109.144 224.385 109.944 224.385 110.992C224.385 112.04 224.585 112.84 224.985 113.392C225.393 113.944 225.937 114.22 226.617 114.22ZM231.841 115.264C231.617 115.264 231.425 115.188 231.265 115.036C231.105 114.876 231.025 114.676 231.025 114.436C231.025 114.204 231.105 114.012 231.265 113.86C231.425 113.7 231.617 113.62 231.841 113.62C232.065 113.62 232.253 113.696 232.405 113.848C232.557 114 232.633 114.196 232.633 114.436C232.633 114.676 232.553 114.876 232.393 115.036C232.241 115.188 232.057 115.264 231.841 115.264ZM237.059 115.288C236.395 115.288 235.803 115.12 235.283 114.784C234.771 114.44 234.367 113.944 234.071 113.296C233.775 112.648 233.627 111.88 233.627 110.992C233.627 110.104 233.775 109.336 234.071 108.688C234.367 108.04 234.771 107.548 235.283 107.212C235.803 106.868 236.395 106.696 237.059 106.696C237.715 106.696 238.299 106.868 238.811 107.212C239.331 107.548 239.739 108.04 240.035 108.688C240.331 109.336 240.479 110.104 240.479 110.992C240.479 111.88 240.331 112.648 240.035 113.296C239.739 113.944 239.331 114.44 238.811 114.784C238.299 115.12 237.715 115.288 237.059 115.288ZM237.059 114.22C237.731 114.22 238.267 113.944 238.667 113.392C239.075 112.84 239.279 112.04 239.279 110.992C239.279 109.944 239.075 109.144 238.667 108.592C238.267 108.04 237.731 107.764 237.059 107.764C236.379 107.764 235.835 108.04 235.427 108.592C235.027 109.144 234.827 109.944 234.827 110.992C234.827 112.04 235.027 112.84 235.427 113.392C235.835 113.944 236.379 114.22 237.059 114.22ZM244.031 110.14C245.231 110.14 246.111 110.368 246.671 110.824C247.239 111.272 247.523 111.888 247.523 112.672C247.523 113.168 247.403 113.616 247.163 114.016C246.931 114.408 246.575 114.72 246.095 114.952C245.623 115.176 245.039 115.288 244.343 115.288C243.751 115.288 243.179 115.2 242.627 115.024C242.075 114.84 241.619 114.588 241.259 114.268L241.811 113.32C242.099 113.592 242.467 113.812 242.915 113.98C243.363 114.14 243.835 114.22 244.331 114.22C244.963 114.22 245.451 114.088 245.795 113.824C246.147 113.552 246.323 113.184 246.323 112.72C246.323 112.216 246.131 111.836 245.747 111.58C245.363 111.316 244.707 111.184 243.779 111.184H241.871L242.315 106.792H247.055V107.836H243.323L243.095 110.14H244.031Z" fill="#FEFEFE"/>
<path d="M257.78 113.092H253.316L252.392 115.192H251.156L254.96 106.792H256.148L259.964 115.192H258.704L257.78 113.092ZM257.36 112.132L255.548 108.016L253.736 112.132H257.36ZM267.313 114.148V115.192H261.217V106.792H267.145V107.836H262.417V110.416H266.629V111.436H262.417V114.148H267.313ZM269.256 106.792H272.796C273.684 106.792 274.472 106.968 275.16 107.32C275.848 107.672 276.38 108.168 276.756 108.808C277.14 109.44 277.332 110.168 277.332 110.992C277.332 111.816 277.14 112.548 276.756 113.188C276.38 113.82 275.848 114.312 275.16 114.664C274.472 115.016 273.684 115.192 272.796 115.192H269.256V106.792ZM272.724 114.148C273.404 114.148 274 114.016 274.512 113.752C275.032 113.488 275.432 113.12 275.712 112.648C275.992 112.168 276.132 111.616 276.132 110.992C276.132 110.368 275.992 109.82 275.712 109.348C275.432 108.868 275.032 108.496 274.512 108.232C274 107.968 273.404 107.836 272.724 107.836H270.456V114.148H272.724Z" fill="#AABBC6"/>
<rect x="25.6094" y="123.353" width="252.781" height="3.1016" rx="1.5508" fill="#85949F" fill-opacity="0.38"/>
<rect x="25.6094" y="123.353" width="162.059" height="3.1016" rx="1.5508" fill="#FDFDFD"/>
<path d="M119.432 169.6V178H117.872V170.908H116.096V169.6H119.432ZM127.182 176.68V178H120.99V176.956L124.326 173.788C124.702 173.428 124.954 173.116 125.082 172.852C125.218 172.58 125.286 172.312 125.286 172.048C125.286 171.656 125.154 171.356 124.89 171.148C124.626 170.94 124.238 170.836 123.726 170.836C122.87 170.836 122.214 171.128 121.758 171.712L120.666 170.872C120.994 170.432 121.434 170.092 121.986 169.852C122.546 169.604 123.17 169.48 123.858 169.48C124.77 169.48 125.498 169.696 126.042 170.128C126.586 170.56 126.858 171.148 126.858 171.892C126.858 172.348 126.762 172.776 126.57 173.176C126.378 173.576 126.01 174.032 125.466 174.544L123.222 176.68H127.182ZM131.272 167.896H132.616L128.656 179.2H127.312L131.272 167.896ZM138.737 176.68V178H132.545V176.956L135.881 173.788C136.257 173.428 136.509 173.116 136.637 172.852C136.773 172.58 136.841 172.312 136.841 172.048C136.841 171.656 136.709 171.356 136.445 171.148C136.181 170.94 135.793 170.836 135.281 170.836C134.425 170.836 133.769 171.128 133.313 171.712L132.221 170.872C132.549 170.432 132.989 170.092 133.541 169.852C134.101 169.604 134.725 169.48 135.413 169.48C136.325 169.48 137.053 169.696 137.597 170.128C138.141 170.56 138.413 171.148 138.413 171.892C138.413 172.348 138.317 172.776 138.125 173.176C137.933 173.576 137.565 174.032 137.021 174.544L134.777 176.68H138.737ZM145.938 169.6V170.644L142.674 178H141.006L144.162 170.92H140.862V172.348H139.41V169.6H145.938Z" fill="white"/>
<path d="M117.68 151.77V154.1H120.22V154.85H117.68V157.25H120.52V158H116.77V151.02H120.52V151.77H117.68ZM124.757 158L123.457 155.96L122.207 158H121.257L123.027 155.28L121.257 152.52H122.287L123.587 154.55L124.827 152.52H125.777L124.017 155.23L125.787 158H124.757ZM127.592 153.53C127.772 153.217 128.039 152.957 128.392 152.75C128.752 152.537 129.169 152.43 129.642 152.43C130.129 152.43 130.569 152.547 130.962 152.78C131.362 153.013 131.675 153.343 131.902 153.77C132.129 154.19 132.242 154.68 132.242 155.24C132.242 155.793 132.129 156.287 131.902 156.72C131.675 157.153 131.362 157.49 130.962 157.73C130.569 157.97 130.129 158.09 129.642 158.09C129.175 158.09 128.762 157.987 128.402 157.78C128.049 157.567 127.779 157.303 127.592 156.99V160.6H126.682V152.52H127.592V153.53ZM131.312 155.24C131.312 154.827 131.229 154.467 131.062 154.16C130.895 153.853 130.669 153.62 130.382 153.46C130.102 153.3 129.792 153.22 129.452 153.22C129.119 153.22 128.809 153.303 128.522 153.47C128.242 153.63 128.015 153.867 127.842 154.18C127.675 154.487 127.592 154.843 127.592 155.25C127.592 155.663 127.675 156.027 127.842 156.34C128.015 156.647 128.242 156.883 128.522 157.05C128.809 157.21 129.119 157.29 129.452 157.29C129.792 157.29 130.102 157.21 130.382 157.05C130.669 156.883 130.895 156.647 131.062 156.34C131.229 156.027 131.312 155.66 131.312 155.24ZM133.91 151.63C133.737 151.63 133.59 151.57 133.47 151.45C133.35 151.33 133.29 151.183 133.29 151.01C133.29 150.837 133.35 150.69 133.47 150.57C133.59 150.45 133.737 150.39 133.91 150.39C134.077 150.39 134.217 150.45 134.33 150.57C134.45 150.69 134.51 150.837 134.51 151.01C134.51 151.183 134.45 151.33 134.33 151.45C134.217 151.57 134.077 151.63 133.91 151.63ZM134.35 152.52V158H133.44V152.52H134.35ZM136.811 153.41C136.971 153.097 137.198 152.853 137.491 152.68C137.791 152.507 138.154 152.42 138.581 152.42V153.36H138.341C137.321 153.36 136.811 153.913 136.811 155.02V158H135.901V152.52H136.811V153.41ZM144.351 152.52L141.051 160.58H140.111L141.191 157.94L138.981 152.52H139.991L141.711 156.96L143.411 152.52H144.351Z" fill="#FFFBFB" fill-opacity="0.8"/>
<path d="M23.43 154.51C23.43 153.83 23.5833 153.22 23.89 152.68C24.1967 152.133 24.6133 151.707 25.14 151.4C25.6733 151.093 26.2633 150.94 26.91 150.94C27.67 150.94 28.3333 151.123 28.9 151.49C29.4667 151.857 29.88 152.377 30.14 153.05H29.05C28.8567 152.63 28.5767 152.307 28.21 152.08C27.85 151.853 27.4167 151.74 26.91 151.74C26.4233 151.74 25.9867 151.853 25.6 152.08C25.2133 152.307 24.91 152.63 24.69 153.05C24.47 153.463 24.36 153.95 24.36 154.51C24.36 155.063 24.47 155.55 24.69 155.97C24.91 156.383 25.2133 156.703 25.6 156.93C25.9867 157.157 26.4233 157.27 26.91 157.27C27.4167 157.27 27.85 157.16 28.21 156.94C28.5767 156.713 28.8567 156.39 29.05 155.97H30.14C29.88 156.637 29.4667 157.153 28.9 157.52C28.3333 157.88 27.67 158.06 26.91 158.06C26.2633 158.06 25.6733 157.91 25.14 157.61C24.6133 157.303 24.1967 156.88 23.89 156.34C23.5833 155.8 23.43 155.19 23.43 154.51ZM31.1546 155.24C31.1546 154.68 31.2679 154.19 31.4946 153.77C31.7213 153.343 32.0313 153.013 32.4246 152.78C32.8246 152.547 33.2679 152.43 33.7546 152.43C34.2346 152.43 34.6513 152.533 35.0046 152.74C35.3579 152.947 35.6213 153.207 35.7946 153.52V152.52H36.7146V158H35.7946V156.98C35.6146 157.3 35.3446 157.567 34.9846 157.78C34.6313 157.987 34.2179 158.09 33.7446 158.09C33.2579 158.09 32.8179 157.97 32.4246 157.73C32.0313 157.49 31.7213 157.153 31.4946 156.72C31.2679 156.287 31.1546 155.793 31.1546 155.24ZM35.7946 155.25C35.7946 154.837 35.7113 154.477 35.5446 154.17C35.3779 153.863 35.1513 153.63 34.8646 153.47C34.5846 153.303 34.2746 153.22 33.9346 153.22C33.5946 153.22 33.2846 153.3 33.0046 153.46C32.7246 153.62 32.5013 153.853 32.3346 154.16C32.1679 154.467 32.0846 154.827 32.0846 155.24C32.0846 155.66 32.1679 156.027 32.3346 156.34C32.5013 156.647 32.7246 156.883 33.0046 157.05C33.2846 157.21 33.5946 157.29 33.9346 157.29C34.2746 157.29 34.5846 157.21 34.8646 157.05C35.1513 156.883 35.3779 156.647 35.5446 156.34C35.7113 156.027 35.7946 155.663 35.7946 155.25ZM39.1624 153.41C39.3224 153.097 39.5491 152.853 39.8424 152.68C40.1424 152.507 40.5058 152.42 40.9324 152.42V153.36H40.6924C39.6724 153.36 39.1624 153.913 39.1624 155.02V158H38.2524V152.52H39.1624V153.41ZM41.6429 155.24C41.6429 154.68 41.7562 154.19 41.9829 153.77C42.2096 153.343 42.5196 153.013 42.9129 152.78C43.3129 152.547 43.7596 152.43 44.2529 152.43C44.6796 152.43 45.0762 152.53 45.4429 152.73C45.8096 152.923 46.0896 153.18 46.2829 153.5V150.6H47.2029V158H46.2829V156.97C46.1029 157.297 45.8362 157.567 45.4829 157.78C45.1296 157.987 44.7162 158.09 44.2429 158.09C43.7562 158.09 43.3129 157.97 42.9129 157.73C42.5196 157.49 42.2096 157.153 41.9829 156.72C41.7562 156.287 41.6429 155.793 41.6429 155.24ZM46.2829 155.25C46.2829 154.837 46.1996 154.477 46.0329 154.17C45.8662 153.863 45.6396 153.63 45.3529 153.47C45.0729 153.303 44.7629 153.22 44.4229 153.22C44.0829 153.22 43.7729 153.3 43.4929 153.46C43.2129 153.62 42.9896 153.853 42.8229 154.16C42.6562 154.467 42.5729 154.827 42.5729 155.24C42.5729 155.66 42.6562 156.027 42.8229 156.34C42.9896 156.647 43.2129 156.883 43.4929 157.05C43.7729 157.21 44.0829 157.29 44.4229 157.29C44.7629 157.29 45.0729 157.21 45.3529 157.05C45.6396 156.883 45.8662 156.647 46.0329 156.34C46.1996 156.027 46.2829 155.663 46.2829 155.25ZM56.8867 158H55.9767L52.3167 152.45V158H51.4067V151.02H52.3167L55.9767 156.56V151.02H56.8867V158ZM63.298 152.52V158H62.388V157.19C62.2146 157.47 61.9713 157.69 61.658 157.85C61.3513 158.003 61.0113 158.08 60.638 158.08C60.2113 158.08 59.828 157.993 59.488 157.82C59.148 157.64 58.878 157.373 58.678 157.02C58.4846 156.667 58.388 156.237 58.388 155.73V152.52H59.288V155.61C59.288 156.15 59.4246 156.567 59.698 156.86C59.9713 157.147 60.3446 157.29 60.818 157.29C61.3046 157.29 61.688 157.14 61.968 156.84C62.248 156.54 62.388 156.103 62.388 155.53V152.52H63.298ZM71.4245 152.42C71.8511 152.42 72.2311 152.51 72.5645 152.69C72.8978 152.863 73.1611 153.127 73.3545 153.48C73.5478 153.833 73.6445 154.263 73.6445 154.77V158H72.7445V154.9C72.7445 154.353 72.6078 153.937 72.3345 153.65C72.0678 153.357 71.7045 153.21 71.2445 153.21C70.7711 153.21 70.3945 153.363 70.1145 153.67C69.8345 153.97 69.6945 154.407 69.6945 154.98V158H68.7945V154.9C68.7945 154.353 68.6578 153.937 68.3845 153.65C68.1178 153.357 67.7545 153.21 67.2945 153.21C66.8211 153.21 66.4445 153.363 66.1645 153.67C65.8845 153.97 65.7445 154.407 65.7445 154.98V158H64.8345V152.52H65.7445V153.31C65.9245 153.023 66.1645 152.803 66.4645 152.65C66.7711 152.497 67.1078 152.42 67.4745 152.42C67.9345 152.42 68.3411 152.523 68.6945 152.73C69.0478 152.937 69.3111 153.24 69.4845 153.64C69.6378 153.253 69.8911 152.953 70.2445 152.74C70.5978 152.527 70.9911 152.42 71.4245 152.42ZM76.0472 153.54C76.2339 153.213 76.5072 152.947 76.8672 152.74C77.2272 152.533 77.6372 152.43 78.0972 152.43C78.5905 152.43 79.0339 152.547 79.4272 152.78C79.8205 153.013 80.1305 153.343 80.3572 153.77C80.5839 154.19 80.6972 154.68 80.6972 155.24C80.6972 155.793 80.5839 156.287 80.3572 156.72C80.1305 157.153 79.8172 157.49 79.4172 157.73C79.0239 157.97 78.5839 158.09 78.0972 158.09C77.6239 158.09 77.2072 157.987 76.8472 157.78C76.4939 157.573 76.2272 157.31 76.0472 156.99V158H75.1372V150.6H76.0472V153.54ZM79.7672 155.24C79.7672 154.827 79.6839 154.467 79.5172 154.16C79.3505 153.853 79.1239 153.62 78.8372 153.46C78.5572 153.3 78.2472 153.22 77.9072 153.22C77.5739 153.22 77.2639 153.303 76.9772 153.47C76.6972 153.63 76.4705 153.867 76.2972 154.18C76.1305 154.487 76.0472 154.843 76.0472 155.25C76.0472 155.663 76.1305 156.027 76.2972 156.34C76.4705 156.647 76.6972 156.883 76.9772 157.05C77.2639 157.21 77.5739 157.29 77.9072 157.29C78.2472 157.29 78.5572 157.21 78.8372 157.05C79.1239 156.883 79.3505 156.647 79.5172 156.34C79.6839 156.027 79.7672 155.66 79.7672 155.24ZM86.895 155.05C86.895 155.223 86.885 155.407 86.865 155.6H82.485C82.5183 156.14 82.7017 156.563 83.035 156.87C83.375 157.17 83.785 157.32 84.265 157.32C84.6583 157.32 84.985 157.23 85.245 157.05C85.5117 156.863 85.6983 156.617 85.805 156.31H86.785C86.6383 156.837 86.345 157.267 85.905 157.6C85.465 157.927 84.9183 158.09 84.265 158.09C83.745 158.09 83.2783 157.973 82.865 157.74C82.4583 157.507 82.1383 157.177 81.905 156.75C81.6717 156.317 81.555 155.817 81.555 155.25C81.555 154.683 81.6683 154.187 81.895 153.76C82.1217 153.333 82.4383 153.007 82.845 152.78C83.2583 152.547 83.7317 152.43 84.265 152.43C84.785 152.43 85.245 152.543 85.645 152.77C86.045 152.997 86.3517 153.31 86.565 153.71C86.785 154.103 86.895 154.55 86.895 155.05ZM85.955 154.86C85.955 154.513 85.8783 154.217 85.725 153.97C85.5717 153.717 85.3617 153.527 85.095 153.4C84.835 153.267 84.545 153.2 84.225 153.2C83.765 153.2 83.3717 153.347 83.045 153.64C82.725 153.933 82.5417 154.34 82.495 154.86H85.955ZM89.0062 153.41C89.1662 153.097 89.3928 152.853 89.6862 152.68C89.9862 152.507 90.3495 152.42 90.7762 152.42V153.36H90.5362C89.5162 153.36 89.0062 153.913 89.0062 155.02V158H88.0962V152.52H89.0062V153.41Z" fill="#FFFBFB" fill-opacity="0.8"/>
<path d="M64.0845 173.068C64.8605 173.164 65.4525 173.428 65.8605 173.86C66.2685 174.292 66.4725 174.832 66.4725 175.48C66.4725 175.968 66.3485 176.412 66.1005 176.812C65.8525 177.212 65.4765 177.532 64.9725 177.772C64.4765 178.004 63.8685 178.12 63.1485 178.12C62.5485 178.12 61.9685 178.036 61.4085 177.868C60.8565 177.692 60.3845 177.452 59.9925 177.148L60.6645 175.936C60.9685 176.192 61.3365 176.396 61.7685 176.548C62.2085 176.692 62.6605 176.764 63.1245 176.764C63.6765 176.764 64.1085 176.652 64.4205 176.428C64.7405 176.196 64.9005 175.884 64.9005 175.492C64.9005 175.1 64.7485 174.796 64.4445 174.58C64.1485 174.356 63.6925 174.244 63.0765 174.244H62.3085V173.176L64.2165 170.908H60.4005V169.6H66.1245V170.644L64.0845 173.068ZM73.5182 176.68V178H67.3263V176.956L70.6623 173.788C71.0383 173.428 71.2903 173.116 71.4183 172.852C71.5543 172.58 71.6223 172.312 71.6223 172.048C71.6223 171.656 71.4903 171.356 71.2263 171.148C70.9623 170.94 70.5743 170.836 70.0623 170.836C69.2063 170.836 68.5503 171.128 68.0943 171.712L67.0023 170.872C67.3303 170.432 67.7703 170.092 68.3223 169.852C68.8823 169.604 69.5063 169.48 70.1943 169.48C71.1063 169.48 71.8343 169.696 72.3783 170.128C72.9223 170.56 73.1943 171.148 73.1943 171.892C73.1943 172.348 73.0983 172.776 72.9062 173.176C72.7143 173.576 72.3463 174.032 71.8023 174.544L69.5583 176.68H73.5182ZM79.8666 173.584C80.3066 173.784 80.6426 174.056 80.8746 174.4C81.1146 174.736 81.2346 175.132 81.2346 175.588C81.2346 176.1 81.0906 176.548 80.8026 176.932C80.5226 177.316 80.1226 177.612 79.6026 177.82C79.0826 178.02 78.4786 178.12 77.7906 178.12C77.1026 178.12 76.4986 178.02 75.9786 177.82C75.4666 177.612 75.0706 177.316 74.7906 176.932C74.5106 176.548 74.3706 176.1 74.3706 175.588C74.3706 175.132 74.4866 174.736 74.7186 174.4C74.9506 174.056 75.2826 173.784 75.7146 173.584C75.3786 173.4 75.1186 173.16 74.9346 172.864C74.7586 172.56 74.6706 172.212 74.6706 171.82C74.6706 171.348 74.7986 170.936 75.0546 170.584C75.3186 170.232 75.6866 169.96 76.1586 169.768C76.6306 169.576 77.1746 169.48 77.7906 169.48C78.4146 169.48 78.9626 169.576 79.4346 169.768C79.9066 169.96 80.2746 170.232 80.5386 170.584C80.8026 170.936 80.9346 171.348 80.9346 171.82C80.9346 172.212 80.8426 172.556 80.6586 172.852C80.4746 173.148 80.2106 173.392 79.8666 173.584ZM77.7906 170.704C77.3026 170.704 76.9146 170.808 76.6266 171.016C76.3466 171.224 76.2066 171.516 76.2066 171.892C76.2066 172.252 76.3466 172.54 76.6266 172.756C76.9146 172.964 77.3026 173.068 77.7906 173.068C78.2866 173.068 78.6786 172.964 78.9666 172.756C79.2546 172.54 79.3986 172.252 79.3986 171.892C79.3986 171.516 79.2506 171.224 78.9546 171.016C78.6666 170.808 78.2786 170.704 77.7906 170.704ZM77.7906 176.896C78.3666 176.896 78.8226 176.776 79.1586 176.536C79.4946 176.296 79.6626 175.964 79.6626 175.54C79.6626 175.124 79.4946 174.796 79.1586 174.556C78.8226 174.316 78.3666 174.196 77.7906 174.196C77.2146 174.196 76.7626 174.316 76.4346 174.556C76.1066 174.796 75.9426 175.124 75.9426 175.54C75.9426 175.964 76.1066 176.296 76.4346 176.536C76.7626 176.776 77.2146 176.896 77.7906 176.896ZM88.3307 176.68V178H82.1388V176.956L85.4748 173.788C85.8508 173.428 86.1028 173.116 86.2308 172.852C86.3668 172.58 86.4348 172.312 86.4348 172.048C86.4348 171.656 86.3028 171.356 86.0388 171.148C85.7748 170.94 85.3868 170.836 84.8748 170.836C84.0188 170.836 83.3628 171.128 82.9068 171.712L81.8148 170.872C82.1428 170.432 82.5828 170.092 83.1348 169.852C83.6948 169.604 84.3188 169.48 85.0068 169.48C85.9188 169.48 86.6468 169.696 87.1908 170.128C87.7348 170.56 88.0068 171.148 88.0068 171.892C88.0068 172.348 87.9108 172.776 87.7188 173.176C87.5268 173.576 87.1588 174.032 86.6148 174.544L84.3708 176.68H88.3307Z" fill="white"/>
<path d="M30.5887 171.4L31.9567 172.156L31.4887 172.972L30.0967 172.156L30.1087 173.704H29.1967L29.2087 172.168L27.8287 172.972L27.3487 172.156L28.7287 171.4L27.3487 170.644L27.8287 169.816L29.2087 170.632L29.1967 169.096H30.1087L30.0967 170.644L31.4887 169.816L31.9567 170.644L30.5887 171.4ZM35.8153 171.4L37.1833 172.156L36.7153 172.972L35.3233 172.156L35.3353 173.704H34.4233L34.4353 172.168L33.0553 172.972L32.5753 172.156L33.9553 171.4L32.5753 170.644L33.0553 169.816L34.4353 170.632L34.4233 169.096H35.3353L35.3233 170.644L36.7153 169.816L37.1833 170.644L35.8153 171.4ZM41.0419 171.4L42.4099 172.156L41.9419 172.972L40.5499 172.156L40.5619 173.704H39.6499L39.6619 172.168L38.2819 172.972L37.8019 172.156L39.1819 171.4L37.8019 170.644L38.2819 169.816L39.6619 170.632L39.6499 169.096H40.5619L40.5499 170.644L41.9419 169.816L42.4099 170.644L41.0419 171.4ZM46.2684 171.4L47.6364 172.156L47.1684 172.972L45.7764 172.156L45.7884 173.704H44.8764L44.8884 172.168L43.5084 172.972L43.0284 172.156L44.4084 171.4L43.0284 170.644L43.5084 169.816L44.8884 170.632L44.8764 169.096H45.7884L45.7764 170.644L47.1684 169.816L47.6364 170.644L46.2684 171.4Z" fill="white"/>
<defs>
<filter id="filter0_bd_5723_98530" x="-6.52612" y="-6.52612" width="80.339" height="71.339" filterUnits="userSpaceOnUse" color-interpolation-filters="sRGB">
<feFlood flood-opacity="0" result="BackgroundImageFix"/>
<feGaussianBlur in="BackgroundImage" stdDeviation="6.76306"/>
<feComposite in2="SourceAlpha" operator="in" result="effect1_backgroundBlur_5723_98530"/>
<feColorMatrix in="SourceAlpha" type="matrix" values="0 0 0 0 0 0 0 0 0 0 0 0 0 0 0 0 0 0 127 0" result="hardAlpha"/>
<feOffset dx="9.30481" dy="9.30481"/>
<feGaussianBlur stdDeviation="7.75401"/>
<feComposite in2="hardAlpha" operator="out"/>
<feColorMatrix type="matrix" values="0 0 0 0 0 0 0 0 0 0 0 0 0 0 0 0 0 0 0.2 0"/>
<feBlend mode="normal" in2="effect1_backgroundBlur_5723_98530" result="effect2_dropShadow_5723_98530"/>
<feBlend mode="normal" in="SourceGraphic" in2="effect2_dropShadow_5723_98530" result="shape"/>
</filter>
<filter id="filter1_bd_5723_98530" x="-6.52612" y="7.47388" width="328.339" height="218.232" filterUnits="userSpaceOnUse" color-interpolation-filters="sRGB">
<feFlood flood-opacity="0" result="BackgroundImageFix"/>
<feGaussianBlur in="BackgroundImage" stdDeviation="6.76306"/>
<feComposite in2="SourceAlpha" operator="in" result="effect1_backgroundBlur_5723_98530"/>
<feColorMatrix in="SourceAlpha" type="matrix" values="0 0 0 0 0 0 0 0 0 0 0 0 0 0 0 0 0 0 127 0" result="hardAlpha"/>
<feOffset dx="9.30481" dy="9.30481"/>
<feGaussianBlur stdDeviation="7.75401"/>
<feComposite in2="hardAlpha" operator="out"/>
<feColorMatrix type="matrix" values="0 0 0 0 0 0 0 0 0 0 0 0 0 0 0 0 0 0 0.2 0"/>
<feBlend mode="normal" in2="effect1_backgroundBlur_5723_98530" result="effect2_dropShadow_5723_98530"/>
<feBlend mode="normal" in="SourceGraphic" in2="effect2_dropShadow_5723_98530" result="shape"/>
</filter>
<radialGradient id="paint0_radial_5723_98530" cx="0" cy="0" r="1" gradientUnits="userSpaceOnUse" gradientTransform="translate(49 40) rotate(-142.149) scale(52.4961 90.9913)">
<stop stop-color="white" stop-opacity="0.55"/>
<stop offset="1" stop-color="white" stop-opacity="0"/>
</radialGradient>
<radialGradient id="paint1_radial_5723_98530" cx="0" cy="0" r="1" gradientUnits="userSpaceOnUse" gradientTransform="translate(7 7.59105) rotate(37.6553) scale(53.0504 92.0815)">
<stop stop-color="white" stop-opacity="0.27"/>
</radialGradient>
<radialGradient id="paint2_radial_5723_98530" cx="0" cy="0" r="1" gradientUnits="userSpaceOnUse" gradientTransform="translate(297 200.893) rotate(-148.47) scale(335.786 535.443)">
<stop stop-color="white" stop-opacity="0.55"/>
<stop offset="1" stop-color="white" stop-opacity="0"/>
</radialGradient>
<radialGradient id="paint3_radial_5723_98530" cx="0" cy="0" r="1" gradientUnits="userSpaceOnUse" gradientTransform="translate(7 24.222) rotate(31.3502) scale(339.577 541.466)">
<stop stop-color="white" stop-opacity="0.27"/>
</radialGradient>
</defs>
</svg>
