<svg width="16" height="12" viewBox="0 0 16 12" fill="none" xmlns="http://www.w3.org/2000/svg">
<path d="M14.4708 1.00073H1.52858C0.707245 1.00073 0.0351562 1.67278 0.0351562 2.49415V10.4586C0.0351562 11.2799 0.7072 11.952 1.52858 11.952H14.4708C15.2921 11.952 15.9642 11.28 15.9642 10.4586V2.49415C15.9642 1.67295 15.2922 1.00091 14.471 1.00091L14.4708 1.00073ZM5.01302 9.21407C5.01302 9.36337 4.91354 9.46303 4.76406 9.46303L2.27517 9.46285C2.12587 9.46285 2.02621 9.36337 2.02621 9.21389V7.72047C2.02621 7.57116 2.12569 7.47151 2.27517 7.47151H4.76406C4.91337 7.47151 5.01302 7.57099 5.01302 7.72047V9.21407ZM14.4708 5.48073H1.52858C1.25479 5.48073 1.03085 5.25677 1.03085 4.983C1.03085 4.70923 1.2548 4.48527 1.52858 4.48527H14.4708C14.7446 4.48527 14.9685 4.70923 14.9685 4.983C14.9687 5.25661 14.7447 5.48073 14.471 5.48073H14.4708Z" fill="#85949F"/>
</svg>
