<svg width="19" height="16" viewBox="0 0 19 16" fill="none" xmlns="http://www.w3.org/2000/svg">
<path fill-rule="evenodd" clip-rule="evenodd" d="M18.8018 13.6775L15.6962 11.2773C16.6396 10.4822 17.4155 9.50749 17.9787 8.40982C18.1091 8.15201 18.1091 7.8476 17.9787 7.58979C16.4553 4.61729 13.4392 2.60612 9.98576 2.60612C8.5394 2.60787 7.11653 2.97199 5.84712 3.66522L2.27315 0.902854C2.17903 0.829611 2.05965 0.796778 1.94131 0.811584C1.82297 0.82639 1.71537 0.887621 1.64219 0.981795L1.09072 1.6917C0.938391 1.88766 0.973731 2.17001 1.16967 2.32238L17.6984 15.097C17.7925 15.1703 17.9119 15.2031 18.0302 15.1883C18.1485 15.1735 18.2561 15.1123 18.3293 15.0181L18.8811 14.3082C19.0333 14.1121 18.9979 13.8298 18.8018 13.6775ZM9.98575 12.0453C7.85491 12.0453 6.13002 10.396 5.97129 8.30587L3.02435 6.02839C2.63695 6.51439 2.28046 7.02821 1.99279 7.59007C1.86245 7.84788 1.86245 8.15229 1.99279 8.4101C3.51626 11.3826 6.5323 13.3938 9.98575 13.3938C10.7417 13.3938 11.471 13.2814 12.1739 13.0999L10.7162 11.972C10.4754 12.0185 10.2309 12.043 9.98575 12.0453ZM12.5366 8.83486L13.6406 9.68832C13.8825 9.17366 14.0311 8.60759 14.0311 7.99994C14.0317 6.92686 13.6057 5.89756 12.8469 5.13878C12.0881 4.38 11.0588 3.95398 9.98575 3.95458C9.04963 3.95527 8.14342 4.28444 7.42509 4.88473L9.49301 6.48293C9.51757 6.39113 9.53208 6.29694 9.53627 6.202C9.53576 5.91672 9.44413 5.63905 9.27473 5.4095C10.0851 5.1729 10.9597 5.3347 11.6318 5.84557C12.3038 6.35643 12.6938 7.15581 12.6827 7.99994C12.6789 8.28427 12.6296 8.56614 12.5366 8.83486Z" fill="#343C44"/>
</svg>
