<svg width="20" height="21" viewBox="0 0 20 21" fill="none" xmlns="http://www.w3.org/2000/svg">
<path d="M0.524545 17.9526L4.6584 20.3296C4.96844 20.5018 5.38183 20.5018 5.69187 20.3296L9.99817 17.8837L14.3045 20.3296C14.6145 20.5018 15.0279 20.5018 15.3379 20.3296L19.4718 17.9526C19.7818 17.7803 19.9885 17.4359 19.9885 17.0569V12.0274C19.9885 11.6485 19.7818 11.304 19.4718 11.1317L15.1655 8.65141V3.41519C15.1655 3.03625 14.9588 2.69176 14.6488 2.51952L10.5149 0.14255C10.2049 -0.0296943 9.79147 -0.0296943 9.48143 0.14255L5.34758 2.51952C5.03754 2.69176 4.83084 3.03625 4.83084 3.41519V8.68605L0.524545 11.1319C0.214505 11.3042 0.0078125 11.6487 0.0078125 12.0276V17.0914C0.0078125 17.4359 0.214505 17.7803 0.524545 17.9526ZM5.17494 16.299L4.7271 15.8512C4.796 15.7134 4.83045 15.5412 4.83045 15.3689V14.7833L4.52041 14.1632C4.48596 14.0943 4.48596 14.0599 4.48596 13.991V13.3364C4.48596 12.9575 4.796 12.6475 5.17494 12.6475C5.55388 12.6475 5.86391 12.9575 5.86391 13.3364V13.991C5.86391 14.0599 5.86391 14.0943 5.82947 14.1288L5.51943 14.7833V15.3689C5.51943 15.5412 5.55388 15.679 5.62277 15.8512L5.17494 16.299ZM6.2084 15.3689V14.9211L6.44954 14.4388C6.51844 14.301 6.55289 14.1288 6.55289 13.991V13.3364C6.55289 12.5786 5.93281 11.9585 5.17494 11.9585C4.41706 11.9585 3.79699 12.5786 3.79699 13.3364V13.991C3.79699 14.1632 3.83143 14.301 3.90033 14.4388L4.14147 14.9211V15.3689C4.14147 15.5067 4.03813 15.6445 3.90033 15.7134L2.79797 16.0235L3.00466 13.3364C3.10801 12.1307 4.14147 11.2351 5.34718 11.3384C6.4151 11.4073 7.27632 12.2685 7.34521 13.3364L7.55191 16.0235L6.44954 15.7134C6.31175 15.6445 6.2084 15.5067 6.2084 15.3689ZM2.41903 17.0914C2.41903 16.9536 2.52238 16.8158 2.66017 16.7469L4.07258 16.3335C4.10703 16.3335 4.17592 16.299 4.21037 16.299L4.69266 16.7813L3.79699 17.677V19.055L2.41903 18.2626V17.0914ZM5.34718 19.7439C5.24384 19.8128 5.10604 19.8128 5.00269 19.7439L4.48596 19.4339V17.9526L6.13951 16.299C6.17395 16.3335 6.24285 16.3335 6.2773 16.3335L7.6897 16.7469C7.8275 16.7813 7.93084 16.9191 7.93084 17.0914V18.2626L5.34718 19.7439ZM11.3755 4.03527C11.031 3.89747 10.6521 3.89747 10.3765 4.10416L9.99758 4.31086L9.61864 4.10416C9.3086 3.93192 8.92966 3.89747 8.61962 4.03527V3.34629C8.61962 3.1396 8.75742 3.0018 8.96411 3.0018H11.031C11.2377 3.0018 11.3755 3.1396 11.3755 3.34629V4.03527ZM8.61962 5.06873C8.61962 4.82759 8.82632 4.6209 9.06746 4.6209C9.13636 4.6209 9.2397 4.65534 9.3086 4.68979L10.032 5.13763L10.7555 4.68979C10.9621 4.552 11.2377 4.6209 11.3411 4.82759C11.3755 4.89649 11.41 4.96538 11.41 5.06873V5.8266C11.41 5.92995 11.3755 5.99885 11.3066 6.06775L10.4454 6.92897L9.99758 7.34235L8.75742 6.1022C8.68852 6.0333 8.65407 5.9644 8.65407 5.86105V5.06873H8.61962ZM12.7535 9.65062L10.6521 10.8563L11.2033 9.40948C11.3411 9.03054 11.2377 8.61716 10.9621 8.30712L10.4799 7.82483L11.1344 7.17031L12.5123 7.61814C12.6501 7.65259 12.7535 7.79038 12.7535 7.92818V9.65062ZM9.99758 8.30712L10.4799 8.7894C10.5832 8.89275 10.6177 9.03054 10.5488 9.16834L9.99758 10.6496L9.44639 9.16834C9.41195 9.03054 9.44639 8.89275 9.51529 8.7894L9.99758 8.30712ZM8.86076 7.17031L9.51529 7.82483L9.03301 8.30712C8.75742 8.58271 8.65407 9.03054 8.79187 9.40948L9.34305 10.8563L7.24167 9.65062V7.99708C7.24167 7.85928 7.34502 7.72149 7.48281 7.68704L8.86076 7.17031ZM14.9927 19.7443C14.8893 19.8132 14.7515 19.8132 14.6482 19.7443L12.0645 18.263V16.6095C12.0645 16.4717 12.1679 16.3339 12.3056 16.2994L13.6836 15.8516C14.3037 16.4717 15.3371 16.4717 15.9572 15.8516L17.3352 16.2994C17.473 16.3339 17.5763 16.4717 17.5763 16.6095V18.263L14.9927 19.7443ZM13.4425 13.3368V13.2679L14.8204 12.9924L16.1984 13.2679V14.1636C16.1984 14.2325 16.1639 14.3014 16.1295 14.3703L15.5783 15.2315C15.2682 15.6449 14.6826 15.7483 14.2692 15.4038C14.2003 15.3349 14.1314 15.3004 14.097 15.2315L13.5458 14.3703C13.5114 14.3014 13.4769 14.2325 13.4769 14.1636V13.3368H13.4425ZM16.1984 12.579L14.8204 12.3034L13.4425 12.579V11.9589C13.4425 11.7522 13.5803 11.6144 13.7869 11.6144H16.1984V12.579ZM19.1265 11.7177C19.2299 11.7866 19.2988 11.89 19.2988 12.0278V17.0916C19.2988 17.2294 19.2299 17.3327 19.1265 17.4016L18.2653 17.8494V16.5748C18.2653 16.127 17.9897 15.7481 17.5419 15.6103L16.3706 15.2313L16.6806 14.749C16.784 14.5768 16.8529 14.3701 16.8529 14.1634V10.9252H13.7525C13.1669 10.9252 12.719 11.3731 12.719 11.9587V14.1634C12.719 14.3701 12.7879 14.5768 12.8913 14.749L13.2013 15.2313L12.0301 15.6103C11.6511 15.7481 11.3755 16.127 11.3755 16.5748V17.8494L10.3421 17.2638V11.7866C10.411 11.7522 10.4454 11.7522 10.5143 11.7177L14.8206 9.27188L19.1265 11.7177ZM5.69147 3.10554L9.82533 0.728573C9.92868 0.659676 10.0665 0.659676 10.1698 0.728573L14.3037 3.10554C14.407 3.17444 14.4759 3.27779 14.4759 3.41558V8.68645L13.4425 9.27208V7.99747C13.4425 7.54964 13.1669 7.1707 12.719 7.0329L11.6511 6.68842L11.7545 6.58507C11.9612 6.37838 12.0645 6.13723 12.0645 5.86164V3.34688C12.0645 2.76125 11.6167 2.31342 11.031 2.31342H8.96411C8.37848 2.31342 7.93065 2.76125 7.93065 3.34688V5.8272C7.93065 6.10279 8.03399 6.37838 8.24069 6.55062L8.34403 6.65397L7.27612 6.99846C6.82828 7.13625 6.55269 7.51519 6.55269 7.96302V9.23763L5.51923 8.652V3.41578C5.51923 3.27798 5.58813 3.17464 5.69147 3.10574V3.10554ZM0.696198 12.0276C0.696198 11.8898 0.765096 11.7864 0.868442 11.7176L5.17474 9.27168L9.48104 11.7176C9.54994 11.752 9.58439 11.752 9.65329 11.7864V17.2636L8.61982 17.8492V17.0914C8.61982 16.7813 8.48203 16.5057 8.27533 16.3335L8.03419 13.2675C7.89639 11.6829 6.51844 10.5116 4.96825 10.615C3.55584 10.7183 2.45348 11.8551 2.31569 13.2675L2.07454 16.3335C1.86785 16.5402 1.73006 16.8158 1.73006 17.0914V17.8492L0.868836 17.367C0.76549 17.2981 0.696592 17.1947 0.696592 17.0569L0.696198 12.0276Z" fill="#85949F"/>
</svg>
