<svg width="24" height="24" viewBox="0 0 24 24" fill="none" xmlns="http://www.w3.org/2000/svg">
<path d="M11.5359 15.6562H6.94531V19.5347H11.5359V15.6562Z" stroke="#85949F" stroke-width="0.818182" stroke-miterlimit="10" stroke-linecap="round" stroke-linejoin="round"/>
<path d="M7.62891 15.6556V14.2734C7.62891 13.3832 8.35027 12.6621 9.24018 12.6621C10.1304 12.6621 10.8515 13.3835 10.8515 14.2734V15.6556" stroke="#85949F" stroke-width="0.818182" stroke-miterlimit="10" stroke-linecap="round" stroke-linejoin="round"/>
<path d="M22.2551 3.00818L2.45836 3.006C2.08091 3.006 1.77491 2.7 1.77491 2.32227C1.77491 1.94509 2.08091 1.63909 2.45836 1.63909L19.6713 1.63636C20.1232 1.63636 20.4895 1.27009 20.4895 0.818182C20.4895 0.366273 20.1232 0 19.6713 0H1.90909C0.856636 0 0 0.856636 0 1.90909V19.125C0 19.6699 0.441818 20.1123 0.987273 20.1123H3.08564C4.36527 22.1231 6.612 23.4611 9.16664 23.4611C11.7213 23.4611 13.968 22.1234 15.2476 20.1125H22.2551C22.8005 20.1125 23.2424 19.6702 23.2424 19.1253V3.99573C23.2424 3.45027 22.8005 3.00818 22.2551 3.00818ZM9.16664 22.0975C5.94627 22.0975 3.32645 19.4779 3.32645 16.2578C3.32645 16.0154 3.34173 15.771 3.37145 15.5313C3.73255 12.6161 6.22418 10.4176 9.16664 10.4176C9.92045 10.4176 10.6533 10.5589 11.3455 10.8371C13.5695 11.7316 15.0068 13.8595 15.0068 16.2578C15.0068 19.4776 12.387 22.0975 9.16664 22.0975ZM21.7323 9.67936H16.3844C15.3734 9.67936 14.5538 8.86009 14.5538 7.84909C14.5538 6.83782 15.3734 6.01827 16.3844 6.01827H21.7323V9.67936ZM15.7805 7.84909C15.7805 8.28218 16.1315 8.63373 16.5652 8.63373C16.9988 8.63373 17.3498 8.28218 17.3498 7.84909C17.3498 7.41546 16.9988 7.06445 16.5652 7.06445C16.1315 7.06445 15.7805 7.41546 15.7805 7.84909Z" fill="#85949F"/>
</svg>
