<svg width="32" height="32" viewBox="0 0 32 32" fill="none" xmlns="http://www.w3.org/2000/svg">
<path d="M5.33203 16C5.33203 14.1144 5.33203 13.1716 5.91782 12.5858C6.5036 12 7.44641 12 9.33203 12H22.6654C24.551 12 25.4938 12 26.0796 12.5858C26.6654 13.1716 26.6654 14.1144 26.6654 16V22C26.6654 24.8284 26.6654 26.2426 25.7867 27.1213C24.908 28 23.4938 28 20.6654 28H11.332C8.50361 28 7.08939 28 6.21071 27.1213C5.33203 26.2426 5.33203 24.8284 5.33203 22V16Z" fill="#E5D6FA" stroke="#955DEB" stroke-width="1.6"/>
<path d="M21.3307 10.6667V9.33333C21.3307 9.02382 21.3307 8.86907 21.3239 8.73832C21.1899 6.18273 19.148 4.14078 16.5924 4.00685C16.4617 4 16.3069 4 15.9974 4V4C15.6879 4 15.5331 4 15.4024 4.00685C12.8468 4.14078 10.8048 6.18273 10.6709 8.73832C10.6641 8.86907 10.6641 9.02382 10.6641 9.33333V10.6667" stroke="#955DEB" stroke-width="1.6" stroke-linecap="round"/>
<circle cx="15.9987" cy="19.9997" r="2.66667" fill="#955DEB"/>
</svg>
