<svg width="47" height="47" viewBox="0 0 47 47" fill="none" xmlns="http://www.w3.org/2000/svg">
<path d="M23.5717 31.3125H14.3906V39.0694H23.5717V31.3125Z" stroke="#7B35E7" stroke-width="0.818182" stroke-miterlimit="10" stroke-linecap="round" stroke-linejoin="round"/>
<path d="M15.7578 31.3111V28.5468C15.7578 26.7664 17.2005 25.3242 18.9804 25.3242C20.7607 25.3242 22.2029 26.7669 22.2029 28.5468V31.3111" stroke="#7B35E7" stroke-width="0.818182" stroke-miterlimit="10" stroke-linecap="round" stroke-linejoin="round"/>
<path d="M45.0102 6.01636L5.41673 6.012C4.66182 6.012 4.04982 5.4 4.04982 4.64455C4.04982 3.89018 4.66182 3.27818 5.41673 3.27818L39.8425 3.27273C40.7464 3.27273 41.4789 2.54018 41.4789 1.63636C41.4789 0.732545 40.7464 0 39.8425 0H4.31818C2.21327 0 0.5 1.71327 0.5 3.81818V38.25C0.5 39.3398 1.38364 40.2245 2.47455 40.2245H6.67127C9.23054 44.2462 13.724 46.9222 18.8333 46.9222C23.9425 46.9222 28.436 44.2467 30.9953 40.2251H45.0102C46.1011 40.2251 46.9847 39.3404 46.9847 38.2505V7.99145C46.9847 6.90055 46.1011 6.01636 45.0102 6.01636ZM18.8333 44.1949C12.3925 44.1949 7.15291 38.9558 7.15291 32.5156C7.15291 32.0307 7.18345 31.542 7.24291 31.0625C7.96509 25.2322 12.9484 20.8353 18.8333 20.8353C20.3409 20.8353 21.8065 21.1178 23.1909 21.6742C27.6391 23.4633 30.5136 27.7189 30.5136 32.5156C30.5136 38.9553 25.274 44.1949 18.8333 44.1949ZM43.9645 19.3587H33.2687C31.2467 19.3587 29.6076 17.7202 29.6076 15.6982C29.6076 13.6756 31.2467 12.0365 33.2687 12.0365H43.9645V19.3587ZM32.0611 15.6982C32.0611 16.5644 32.7631 17.2675 33.6304 17.2675C34.4976 17.2675 35.1996 16.5644 35.1996 15.6982C35.1996 14.8309 34.4976 14.1289 33.6304 14.1289C32.7631 14.1289 32.0611 14.8309 32.0611 15.6982Z" fill="#7B35E7"/>
</svg>
