<svg width="21" height="24" viewBox="0 0 21 24" fill="none" xmlns="http://www.w3.org/2000/svg">
<path d="M8.54844 5.8497C8.54844 2.70184 11.0997 0.15 14.2484 0.15C17.3966 0.15 19.9484 2.70185 19.9484 5.8497C19.9484 8.99816 17.3966 11.55 14.2484 11.55C11.0997 11.55 8.54844 8.99817 8.54844 5.8497ZM9.74844 5.8497C9.74844 8.33134 11.7671 10.35 14.2484 10.35C16.7298 10.35 18.7484 8.33134 18.7484 5.8497C18.7484 3.36835 16.7301 1.35 14.2484 1.35C11.7668 1.35 9.74844 3.36835 9.74844 5.8497Z" fill="#317159" stroke="#317159" stroke-width="0.3"/>
<path d="M12.9562 8.3534L12.0154 7.60856L15.3813 3.35709L16.3221 4.10193L12.9562 8.3534Z" fill="#317159" stroke="#317159" stroke-width="0.3"/>
<path d="M16.95 7.35005C16.95 7.84711 16.5471 8.25005 16.05 8.25005C15.5529 8.25005 15.15 7.84711 15.15 7.35005C15.15 6.85299 15.5529 6.45005 16.05 6.45005C16.5471 6.45005 16.95 6.85299 16.95 7.35005Z" fill="#317159" stroke="#317159" stroke-width="0.3"/>
<path d="M13.0516 4.35005C13.0516 4.84711 12.6486 5.25005 12.1516 5.25005C11.6545 5.25005 11.2516 4.84711 11.2516 4.35005C11.2516 3.85299 11.6545 3.45005 12.1516 3.45005C12.6486 3.45005 13.0516 3.85299 13.0516 4.35005Z" fill="#317159" stroke="#317159" stroke-width="0.3"/>
<path d="M13.5192 16.6011V16.7511C13.5486 16.7511 13.6919 16.753 13.8241 16.781C13.8914 16.7952 13.943 16.8137 13.9743 16.8336C13.9853 16.8406 13.9908 16.8459 13.9932 16.8486V16.995H14.1432H15.6432H15.7932V16.845C15.7932 16.1263 15.3765 15.4091 14.4966 15.1048V14.4V14.25H14.3466H12.8466H12.6966V14.4V15.0815C11.8468 15.3732 11.4 16.1104 11.4 16.845C11.4 17.5429 11.7276 17.9796 12.1384 18.2557C12.5361 18.5229 13.0124 18.6401 13.3274 18.7176L13.3355 18.7196L13.3355 18.7196C13.7263 18.8156 13.8957 18.8751 13.969 18.9195C13.9821 18.9275 13.9889 18.9331 13.9922 18.9362C13.9926 18.9404 13.9932 18.951 13.9932 18.975C13.9932 18.9863 13.9929 18.9916 13.9927 18.9939C13.9912 18.9954 13.9882 18.998 13.9829 19.0014C13.9441 19.0269 13.8269 19.0693 13.5192 19.0693C13.4682 19.0693 13.3696 19.0648 13.2885 19.0392C13.2 19.0112 13.2 18.9842 13.2 18.9751V18.975V18.8251H13.05H11.55H11.4V18.975C11.4 19.809 11.9206 20.4647 12.6966 20.734V21.4207V21.5707H12.8466H14.3466H14.4966V21.4207V20.7266C14.9394 20.5822 15.2585 20.3363 15.4696 20.0364C15.6968 19.7138 15.7929 19.3371 15.7929 18.9748C15.7929 18.2258 15.4521 17.7586 15.0216 17.4636C14.6042 17.1778 14.104 17.0548 13.7728 16.9734L13.7651 16.9715C13.7651 16.9715 13.765 16.9715 13.765 16.9715C13.651 16.9434 13.5033 16.907 13.3757 16.8689C13.312 16.8499 13.2564 16.8314 13.2141 16.8143C13.224 16.8058 13.2413 16.795 13.2698 16.7848C13.3403 16.7593 13.4365 16.7513 13.5195 16.7511L13.5192 16.6011ZM13.5192 16.6011C13.344 16.6014 13.05 16.6329 13.05 16.845C13.05 16.8813 13.0548 16.896 13.0548 16.896L15.6432 16.845H15.4932H14.2932H14.1432C14.1432 16.608 13.5831 16.6011 13.5192 16.6011ZM9.3 20.4H9.45V20.25V18.75V18.6H9.3H4.2H4.05V18.75V20.25V20.4H4.2H9.3ZM9.3 16.8H9.45V16.65V15.15V15H9.3H4.2H4.05V15.15V16.65V16.8H4.2H9.3ZM13.9948 18.9391C13.9948 18.9391 13.9945 18.9388 13.994 18.9381L13.9948 18.9391ZM14.25 13.35C15.6777 13.35 17.0129 12.948 18.15 12.2527V21C18.15 22.5672 16.8672 23.85 15.3 23.85H3C1.43284 23.85 0.15 22.5672 0.15 21V1.95005H7.84731C7.15182 3.08715 6.75 4.42236 6.75 5.84975C6.75 9.98558 10.1141 13.35 14.25 13.35Z" fill="#317159" stroke="#317159" stroke-width="0.3"/>
</svg>
