<svg width="17" height="24" viewBox="0 0 17 24" fill="none" xmlns="http://www.w3.org/2000/svg">
<g clip-path="url(#clip0_5707_20256)">
<path d="M6.04305 0.020922C8.48019 0.179503 10.8422 0.661506 12.9914 1.89886C16.5803 3.95415 17.5026 7.24262 15.5099 11.0381C14.5334 12.8973 13.1542 14.4539 11.5621 15.8185C11.415 15.9661 11.2469 16.0912 11.0634 16.1899C10.5104 16.4362 9.93664 16.9182 9.32527 16.48C8.71389 16.0418 8.99767 15.3887 9.11661 14.8378C9.37743 13.5504 9.71337 12.2797 10.0118 10.9985C10.5355 8.74914 9.86361 6.89833 8.10252 5.43981C7.16981 4.66777 6.20581 3.93328 5.25432 3.1842C4.92672 2.92754 4.56574 2.71054 4.26319 2.42885C3.84587 2.03657 3.56209 1.55457 3.73528 0.94737C3.90847 0.340171 4.4635 0.14403 5.01227 0.0397006C5.35454 0.00142666 5.69962 -0.00485955 6.04305 0.020922Z" fill="#FEFEFE"/>
<path d="M10.4185 23.9915C7.77894 23.8872 5.28546 23.2403 3.02985 21.834C-0.13551 19.8642 -0.892942 16.3421 1.09975 12.8303C2.09086 11.1152 3.36578 9.58064 4.87023 8.29199C4.91891 8.24291 4.97122 8.19757 5.02672 8.15636C5.69652 7.762 6.35797 7.03169 7.18009 7.53038C8.0022 8.02908 7.45552 8.85955 7.3345 9.53352C7.10288 10.8272 6.70852 12.0812 6.45395 13.377C6.07002 15.3989 6.72104 16.9722 8.1587 18.3327C9.20316 19.2943 10.3124 20.1832 11.4785 20.9931C11.7608 21.1928 12.0318 21.408 12.2902 21.6378C12.7409 22.0385 12.9495 22.5518 12.7701 23.136C12.5802 23.762 12.0335 23.9248 11.4576 23.9707C11.1154 24.0166 10.7669 23.9915 10.4185 23.9915Z" fill="#FEFEFE"/>
</g>
<defs>
<clipPath id="clip0_5707_20256">
<rect width="16.5425" height="24" fill="white"/>
</clipPath>
</defs>
</svg>
