<svg width="32" height="32" viewBox="0 0 32 32" fill="none" xmlns="http://www.w3.org/2000/svg">
<path d="M15.5359 19.6562H10.9453V23.5347H15.5359V19.6562Z" stroke="#FF914D" stroke-width="0.818182" stroke-miterlimit="10" stroke-linecap="round" stroke-linejoin="round"/>
<path d="M11.6289 19.6556V18.2734C11.6289 17.3832 12.3503 16.6621 13.2402 16.6621C14.1304 16.6621 14.8515 17.3835 14.8515 18.2734V19.6556" stroke="#FF914D" stroke-width="0.818182" stroke-miterlimit="10" stroke-linecap="round" stroke-linejoin="round"/>
<path d="M26.2551 7.00818L6.45836 7.006C6.08091 7.006 5.77491 6.7 5.77491 6.32227C5.77491 5.94509 6.08091 5.63909 6.45836 5.63909L23.6713 5.63636C24.1232 5.63636 24.4895 5.27009 24.4895 4.81818C24.4895 4.36627 24.1232 4 23.6713 4H5.90909C4.85664 4 4 4.85664 4 5.90909V23.125C4 23.6699 4.44182 24.1123 4.98727 24.1123H7.08564C8.36527 26.1231 10.612 27.4611 13.1666 27.4611C15.7213 27.4611 17.968 26.1234 19.2476 24.1125H26.2551C26.8005 24.1125 27.2424 23.6702 27.2424 23.1253V7.99573C27.2424 7.45027 26.8005 7.00818 26.2551 7.00818ZM13.1666 26.0975C9.94627 26.0975 7.32645 23.4779 7.32645 20.2578C7.32645 20.0154 7.34173 19.771 7.37145 19.5313C7.73255 16.6161 10.2242 14.4176 13.1666 14.4176C13.9205 14.4176 14.6533 14.5589 15.3455 14.8371C17.5695 15.7316 19.0068 17.8595 19.0068 20.2578C19.0068 23.4776 16.387 26.0975 13.1666 26.0975ZM25.7323 13.6794H20.3844C19.3734 13.6794 18.5538 12.8601 18.5538 11.8491C18.5538 10.8378 19.3734 10.0183 20.3844 10.0183H25.7323V13.6794ZM19.7805 11.8491C19.7805 12.2822 20.1315 12.6337 20.5652 12.6337C20.9988 12.6337 21.3498 12.2822 21.3498 11.8491C21.3498 11.4155 20.9988 11.0645 20.5652 11.0645C20.1315 11.0645 19.7805 11.4155 19.7805 11.8491Z" fill="#FF914D"/>
</svg>
