<svg width="18" height="18" viewBox="0 0 18 18" fill="none" xmlns="http://www.w3.org/2000/svg">
<path d="M7.91328 4.38728C7.91328 2.02638 9.82672 0.1125 12.1883 0.1125C14.5494 0.1125 16.4633 2.02639 16.4633 4.38728C16.4633 6.74862 14.5494 8.6625 12.1883 8.6625C9.82672 8.6625 7.91328 6.74863 7.91328 4.38728ZM8.81328 4.38728C8.81328 6.2485 10.3273 7.7625 12.1883 7.7625C14.0493 7.7625 15.5633 6.2485 15.5633 4.38728C15.5633 2.52626 14.0495 1.0125 12.1883 1.0125C10.3271 1.0125 8.81328 2.52626 8.81328 4.38728Z" fill="#85949F" stroke="#85949F" stroke-width="0.225"/>
<path d="M10.5135 5.70636L13.0379 2.51775L13.7435 3.07638L11.2191 6.26499L10.5135 5.70636Z" fill="#85949F" stroke="#85949F" stroke-width="0.225"/>
<path d="M14.2125 5.51248C14.2125 5.88527 13.9103 6.18748 13.5375 6.18748C13.1647 6.18748 12.8625 5.88527 12.8625 5.51248C12.8625 5.13968 13.1647 4.83748 13.5375 4.83748C13.9103 4.83748 14.2125 5.13968 14.2125 5.51248Z" fill="#85949F" stroke="#85949F" stroke-width="0.225"/>
<path d="M11.2867 3.26248C11.2867 3.63527 10.9845 3.93748 10.6117 3.93748C10.2389 3.93748 9.93672 3.63527 9.93672 3.26248C9.93672 2.88968 10.2389 2.58748 10.6117 2.58748C10.9845 2.58748 11.2867 2.88968 11.2867 3.26248Z" fill="#85949F" stroke="#85949F" stroke-width="0.225"/>
<path d="M8.475 15.3H8.5875V15.1875V14.0625V13.95H8.475H4.65H4.5375V14.0625V15.1875V15.3H4.65H8.475ZM8.475 12.6H8.5875V12.4875V11.3625V11.25H8.475H4.65H4.5375V11.3625V12.4875V12.6H4.65H8.475ZM13.2324 12.7462H13.3449V12.6337C13.3449 12.0946 13.0324 11.5568 12.3724 11.3286V10.8V10.6875H12.2599H11.1349H11.0224V10.8V11.311C10.3851 11.5298 10.05 12.0827 10.05 12.6337C10.05 13.1571 10.2957 13.4847 10.6038 13.6917C10.9021 13.8921 11.2593 13.98 11.4955 14.0382L11.5016 14.0396L11.5016 14.0397C11.7948 14.1117 11.9218 14.1563 11.9767 14.1896C11.9865 14.1955 11.9917 14.1998 11.9942 14.2021C11.9944 14.2053 11.9949 14.2132 11.9949 14.2312C11.9949 14.2397 11.9947 14.2436 11.9945 14.2453C11.9934 14.2465 11.9911 14.2484 11.9872 14.251C11.9581 14.2701 11.8702 14.3019 11.6394 14.3019C11.6012 14.3019 11.5272 14.2985 11.4664 14.2793C11.4 14.2584 11.4 14.2381 11.4 14.2313V14.2312V14.1187H11.2875H10.1625H10.05V14.2312C10.05 14.8567 10.4404 15.3485 11.0224 15.5504V16.0654V16.1779H11.1349H12.2599H12.3724V16.0654V15.5449C12.7045 15.4366 12.9439 15.2522 13.1022 15.0273C13.2726 14.7853 13.3447 14.5028 13.3447 14.231C13.3447 13.6693 13.0891 13.3189 12.7662 13.0977C12.4532 12.8833 12.078 12.791 11.8296 12.73L11.8238 12.7286C11.8238 12.7286 11.8238 12.7286 11.8238 12.7286C11.7383 12.7075 11.6275 12.6802 11.5318 12.6516C11.484 12.6374 11.4423 12.6235 11.4106 12.6107C11.418 12.6043 11.431 12.5962 11.4524 12.5885C11.5052 12.5694 11.5774 12.5634 11.6396 12.5633C11.662 12.5633 11.7692 12.5647 11.8681 12.5857C11.9185 12.5964 11.9573 12.6102 11.9807 12.6251C11.989 12.6304 11.9931 12.6343 11.9949 12.6364V12.7462H12.1074H13.2324ZM12.1875 10.0125C13.2583 10.0125 14.2597 9.7109 15.1125 9.18946V15.75C15.1125 16.9253 14.1504 17.8875 12.975 17.8875H3.75C2.57463 17.8875 1.6125 16.9253 1.6125 15.75V1.46248H7.38548C6.86387 2.3153 6.5625 3.31671 6.5625 4.38725C6.5625 7.48913 9.08561 10.0125 12.1875 10.0125Z" fill="#85949F" stroke="#85949F" stroke-width="0.225"/>
</svg>
