<svg width="23" height="24" viewBox="0 0 23 24" fill="none" xmlns="http://www.w3.org/2000/svg">
<path d="M21.468 0H0.909235C0.404104 0 0 0.404104 0 0.909234V23.0592C0 23.3875 0.176796 23.6906 0.454617 23.8421C0.732439 23.9937 1.08603 23.9937 1.36385 23.8421L4.31886 22.0994L7.29913 23.8674C7.57695 24.0442 7.93054 24.0442 8.23362 23.8674L11.1886 22.1247L14.1436 23.8674C14.2952 23.9432 14.4467 23.9937 14.5983 23.9937C14.7498 23.9937 14.9266 23.9432 15.0529 23.8674L18.0079 22.1247L20.9882 23.8674C21.266 24.0442 21.6196 24.0442 21.8974 23.8674C22.1752 23.7159 22.352 23.4128 22.352 23.0845V0.909234C22.3773 0.404104 21.9732 0 21.468 0ZM6.54144 4.6472V3.71271C6.54144 3.61168 6.61721 3.53591 6.71823 3.53591H7.62747C7.72849 3.53591 7.80426 3.61168 7.80426 3.71271V4.62194C8.73875 4.67245 9.49645 5.40489 9.57222 6.31413C9.57222 6.41515 9.49645 6.51618 9.39542 6.51618H8.46093C8.38516 6.51618 8.30939 6.46567 8.28414 6.3899C8.23362 6.11208 7.9558 5.88477 7.65272 5.88477H6.84451C6.36464 5.88477 5.93528 6.23836 5.88477 6.69298C5.83425 7.24862 6.26361 7.70324 6.794 7.70324H7.47593C8.76401 7.70324 9.77427 8.81452 9.64799 10.1026C9.54696 11.1129 8.73875 11.8706 7.75375 12.0474V13.0071C7.75375 13.1081 7.67798 13.1839 7.57695 13.1839H6.66772C6.56669 13.1839 6.49092 13.1081 6.49092 13.0071V12.0979C5.55643 12.0474 4.79874 11.3149 4.72297 10.4057C4.72297 10.3047 4.79874 10.2036 4.89976 10.2036H5.83425C5.91002 10.2036 5.98579 10.2541 6.01105 10.3299C6.06156 10.6077 6.31413 10.835 6.64246 10.835H7.45067C7.93054 10.835 8.35991 10.4815 8.41042 10.0268C8.46093 9.47119 8.03157 9.01657 7.50118 9.01657H6.89503C5.75848 9.01657 4.72297 8.18311 4.62194 7.04657C4.52092 5.83425 5.40489 4.79874 6.54144 4.6472ZM17.1239 17.4775H5.25335C4.82399 17.4775 4.4704 17.1239 4.4704 16.6946C4.4704 16.2652 4.82399 15.9116 5.25335 15.9116H17.1239C17.5533 15.9116 17.9069 16.2652 17.9069 16.6946C17.9069 17.1239 17.5533 17.4775 17.1239 17.4775ZM17.1239 11.9968H12.7293C12.2999 11.9968 11.9463 11.6685 11.9463 11.2391C11.9463 10.8098 12.2999 10.4562 12.7293 10.4562H17.1239C17.5533 10.4562 17.9069 10.8098 17.9069 11.2391C17.9069 11.6685 17.5533 11.9968 17.1239 11.9968ZM17.1239 6.54144H12.7293C12.2999 6.54144 11.9463 6.18785 11.9463 5.75848C11.9463 5.32912 12.2999 4.97553 12.7293 4.97553H17.1239C17.5533 4.97553 17.9069 5.32912 17.9069 5.75848C17.9069 6.18785 17.5533 6.54144 17.1239 6.54144Z" fill="#85949F"/>
</svg>
