<svg width="32" height="21" viewBox="0 0 32 21" fill="none" xmlns="http://www.w3.org/2000/svg">
<path fill-rule="evenodd" clip-rule="evenodd" d="M0 0.0664062H31.6667V8.59973H24.3V19.0998C24.3 19.8997 23.6333 20.5664 22.8333 20.5664H20.1333H17.5333H8.83333C8.03333 20.5664 7.36666 19.8997 7.36666 19.0998V8.59973H0V0.0664062ZM2.63334 6.03306H7.36666V2.69973H2.63334V6.03306ZM24.3333 6.03306H29.0667V2.69973H24.3333V6.03306ZM20.2344 5.98714V7.77514L11.8344 9.14314V7.82314L13.5024 7.58314H13.4784V6.08314L11.8344 5.84314V4.61914L20.2344 5.98714ZM14.6184 7.42714L18.7704 6.83914V6.81514L14.6184 6.23914V7.42714ZM20.2344 9.78355V13.3835H19.0344V11.1035H16.8144V12.9155H15.6144V11.1035H13.0344V13.3835H11.8344V9.78355H20.2344ZM20.2344 16.1589V14.1429H11.8344L11.8344 16.1589C11.8344 16.8149 12.0104 17.3069 12.3624 17.6349C12.7144 17.9629 13.2304 18.1269 13.9104 18.1269H18.1584C18.8384 18.1269 19.3544 17.9629 19.7064 17.6349C20.0584 17.3069 20.2344 16.8149 20.2344 16.1589ZM13.2264 16.6269C13.0984 16.5149 13.0344 16.3509 13.0344 16.1349L13.0344 15.4629H19.0344V16.1349C19.0344 16.3509 18.9704 16.5149 18.8424 16.6269C18.7144 16.7469 18.5064 16.8069 18.2184 16.8069H13.8504C13.5624 16.8069 13.3544 16.7469 13.2264 16.6269Z" fill="#85949F"/>
</svg>
