<svg width="32" height="21" viewBox="0 0 32 21" fill="none" xmlns="http://www.w3.org/2000/svg">
<path d="M31.6667 0H0V8.53332H7.36666V19.0333C7.36666 19.8333 8.03333 20.5 8.83333 20.5H17.5333V2.6H20.1333V20.5H22.8333C23.6333 20.5 24.3 19.8333 24.3 19.0333V8.53332H31.6667V0ZM13.4667 17.2333C13.4667 17.6 13.1667 17.9 12.8 17.9H10.6667C10.3 17.9 10 17.6 10 17.2333V13.5333C10 13.1667 10.3 12.8667 10.6667 12.8667H12.8C13.1667 12.8667 13.4667 13.1667 13.4667 13.5333V17.2333ZM7.36666 5.96665H2.63334V2.63332H7.36666V5.96665ZM29.0667 5.96665H24.3333V2.63332H29.0667V5.96665Z" fill="#85949F"/>
</svg>
